{
  "source": "C:\\Users\\Peter\\Desktop\\stuff\\MIUN\\quantitative_research\\video_compression\\videos\\BVI-HD\\BVI-HD_CDVL_videos\\ORIG\\Surfers_1920x1080_30fps.mp4",
  "output": "C:\\Users\\Peter\\Desktop\\stuff\\MIUN\\quantitative_research\\video_compression\\compressed_videos\\BVI-HD\\hevc\\3\\Surfers_1920x1080_30fps_hevc.mp4",
  "codec": "hevc",
  "ok": "Input #0, mov,mp4,m4a,3gp,3g2,mj2, from 'C:\\Users\\Peter\\Desktop\\stuff\\MIUN\\quantitative_research\\video_compression\\videos\\BVI-HD\\BVI-HD_CDVL_videos\\ORIG\\Surfers_1920x1080_30fps.mp4':\n  Metadata:\n    major_brand     : isom\n    minor_version   : 512\n    compatible_brands: isomiso2avc1mp41\n    encoder         : Lavf54.28.101\n  Duration: 00:00:05.00, start: 0.000000, bitrate: 232762 kb/s\n  Stream #0:0[0x1](und): Video: h264 (High 4:4:4 Predictive) (avc1 / 0x31637661), yuv420p(progressive), 1920x1080, 232759 kb/s, 30 fps, 30 tbr, 30 tbn (default)\n    Metadata:\n      handler_name    : VideoHandler\n      vendor_id       : [0][0][0][0]\n[out#0/mp4 @ 000002064da3abc0] Codec AVOption b:a (set bitrate (in bits/s)) has not been used for any stream. The most likely reason is either wrong type (e.g. a video option with no video streams) or that it is a private option of some decoder which was not actually used for any stream.\nStream mapping:\n  Stream #0:0 -> #0:0 (h264 (native) -> hevc (libx265))\nPress [q] to stop, [?] for help\n[libx265 @ 000002064dfda480] Unknown option: \"aq-mode.\nx265 [info]: HEVC encoder version 4.1+190-8f11c33ac\nx265 [info]: build info [Windows][GCC 15.1.0][64 bit] 10bit\nx265 [info]: using cpu capabilities: MMX2 SSE2Fast LZCNT SSSE3 SSE4.2 AVX FMA3 BMI2 AVX2\nx265 [info]: Main 10 profile, Level-4 (Main tier)\nx265 [info]: Thread pool created using 12 threads\nx265 [info]: Slices                              : 1\nx265 [info]: frame threads / pool features       : 3 / wpp(17 rows)\nx265 [info]: Coding QT: max CU size, min CU size : 64 / 8\nx265 [info]: Residual QT: max TU size, max depth : 32 / 1 inter / 1 intra\nx265 [info]: ME / range / subpel / merge         : star / 57 / 3 / 3\nx265 [info]: Keyframe min / max / scenecut / bias  : 25 / 250 / 40 / 5.00 \nx265 [info]: Lookahead / bframes / badapt        : 25 / 4 / 2\nx265 [info]: b-pyramid / weightp / weightb       : 1 / 1 / 0\nx265 [info]: References / ref-limit  cu / depth  : 4 / on / on\nx265 [info]: AQ: mode / str / qg-size / cu-tree  : 2 / 1.0 / 32 / 1\nx265 [info]: Rate Control / qCompress            : ABR-3000 kbps / 0.60\nx265 [info]: VBV/HRD buffer / max-rate / init    : 3000 / 3000 / 0.750\nx265 [info]: tools: rect limit-modes rd=4 psy-rd=2.00 rdoq=2 psy-rdoq=1.00\nx265 [info]: tools: rskip mode=1 signhide tmvp strong-intra-smoothing lslices=4\nx265 [info]: tools: deblock sao dhdr10-info\nOutput #0, mp4, to 'C:\\Users\\Peter\\Desktop\\stuff\\MIUN\\quantitative_research\\video_compression\\compressed_videos\\BVI-HD\\hevc\\3\\Surfers_1920x1080_30fps_hevc.mp4':\n  Metadata:\n    major_brand     : isom\n    minor_version   : 512\n    compatible_brands: isomiso2avc1mp41\n    encoder         : Lavf62.3.100\n  Stream #0:0(und): Video: hevc (hev1 / 0x31766568), yuv420p10le(tv, progressive), 1920x1080, q=2-31, 3000 kb/s, 30 fps, 15360 tbn (default)\n    Metadata:\n      encoder         : Lavc62.11.100 libx265\n      handler_name    : VideoHandler\n      vendor_id       : [0][0][0][0]\n    Side data:\n      cpb: bitrate max/min/avg: 3000000/0/3000000 buffer size: 3000000 vbv_delay: N/A\nframe=    0 fps=0.0 q=0.0 size=       0KiB time=N/A bitrate=N/A speed=N/A elapsed=0:00:01.24    \nframe=    0 fps=0.0 q=0.0 size=       0KiB time=N/A bitrate=N/A speed=N/A elapsed=0:00:01.80    \nframe=    0 fps=0.0 q=0.0 size=       0KiB time=N/A bitrate=N/A speed=N/A elapsed=0:00:02.33    \nframe=    0 fps=0.0 q=0.0 size=       0KiB time=N/A bitrate=N/A speed=N/A elapsed=0:00:02.88    \nframe=    0 fps=0.0 q=0.0 size=       0KiB time=N/A bitrate=N/A speed=N/A elapsed=0:00:03.41    \nframe=    0 fps=0.0 q=0.0 size=       0KiB time=N/A bitrate=N/A speed=N/A elapsed=0:00:03.94    \nframe=    0 fps=0.0 q=0.0 size=       0KiB time=N/A bitrate=N/A speed=N/A elapsed=0:00:04.49    \nframe=    0 fps=0.0 q=0.0 size=       0KiB time=N/A bitrate=N/A speed=N/A elapsed=0:00:05.04    \nframe=    0 fps=0.0 q=0.0 size=       0KiB time=N/A bitrate=N/A speed=N/A elapsed=0:00:05.59    \nframe=    0 fps=0.0 q=0.0 size=       0KiB time=N/A bitrate=N/A speed=N/A elapsed=0:00:06.11    \nframe=    0 fps=0.0 q=0.0 size=       0KiB time=N/A bitrate=N/A speed=N/A elapsed=0:00:06.63    \nframe=    0 fps=0.0 q=0.0 size=       0KiB time=N/A bitrate=N/A speed=N/A elapsed=0:00:07.17    \nframe=    0 fps=0.0 q=0.0 size=       0KiB time=N/A bitrate=N/A speed=N/A elapsed=0:00:07.71    \nframe=    0 fps=0.0 q=0.0 size=       0KiB time=N/A bitrate=N/A speed=N/A elapsed=0:00:08.23    \nframe=    0 fps=0.0 q=0.0 size=       0KiB time=N/A bitrate=N/A speed=N/A elapsed=0:00:08.76    \nframe=    0 fps=0.0 q=0.0 size=       0KiB time=N/A bitrate=N/A speed=N/A elapsed=0:00:09.28    \nframe=    0 fps=0.0 q=0.0 size=       0KiB time=N/A bitrate=N/A speed=N/A elapsed=0:00:09.81    \nframe=    0 fps=0.0 q=0.0 size=       0KiB time=N/A bitrate=N/A speed=N/A elapsed=0:00:10.34    \nframe=    0 fps=0.0 q=0.0 size=       0KiB time=N/A bitrate=N/A speed=N/A elapsed=0:00:10.89    \nframe=    1 fps=0.1 q=34.3 size=       0KiB time=-00:00:00.03 bitrate=N/A speed=N/A elapsed=0:00:11.43    \nframe=    1 fps=0.1 q=34.3 size=       0KiB time=-00:00:00.03 bitrate=N/A speed=N/A elapsed=0:00:11.96    \nframe=    1 fps=0.1 q=34.3 size=       0KiB time=-00:00:00.03 bitrate=N/A speed=N/A elapsed=0:00:12.51    \nframe=    1 fps=0.1 q=34.3 size=       0KiB time=-00:00:00.03 bitrate=N/A speed=N/A elapsed=0:00:13.05    \nframe=    1 fps=0.1 q=34.3 size=       0KiB time=-00:00:00.03 bitrate=N/A speed=N/A elapsed=0:00:13.56    \nframe=    2 fps=0.1 q=38.1 size=       0KiB time=00:00:00.00 bitrate=N/A speed=   0x elapsed=0:00:14.08    \nframe=    2 fps=0.1 q=38.1 size=       0KiB time=00:00:00.00 bitrate=N/A speed=   0x elapsed=0:00:14.64    \nframe=    3 fps=0.2 q=40.1 size=       0KiB time=00:00:00.03 bitrate=  10.6kbits/s speed=0.00219x elapsed=0:00:15.19    \nframe=    3 fps=0.2 q=40.1 size=       0KiB time=00:00:00.03 bitrate=  10.6kbits/s speed=0.00212x elapsed=0:00:15.73    \nframe=    3 fps=0.2 q=40.1 size=       0KiB time=00:00:00.03 bitrate=  10.6kbits/s speed=0.00205x elapsed=0:00:16.28    \nframe=    3 fps=0.2 q=40.1 size=       0KiB time=00:00:00.03 bitrate=  10.6kbits/s speed=0.00198x elapsed=0:00:16.81    \nframe=    3 fps=0.2 q=40.1 size=       0KiB time=00:00:00.03 bitrate=  10.6kbits/s speed=0.00192x elapsed=0:00:17.33    \nframe=    4 fps=0.2 q=41.8 size=       0KiB time=00:00:00.06 bitrate=   5.3kbits/s speed=0.00374x elapsed=0:00:17.84    \nframe=    4 fps=0.2 q=41.8 size=       0KiB time=00:00:00.06 bitrate=   5.3kbits/s speed=0.00363x elapsed=0:00:18.36    \nframe=    5 fps=0.3 q=41.3 size=       0KiB time=00:00:00.10 bitrate=   3.5kbits/s speed=0.00529x elapsed=0:00:18.90    \nframe=    5 fps=0.3 q=41.3 size=       0KiB time=00:00:00.10 bitrate=   3.5kbits/s speed=0.00514x elapsed=0:00:19.43    \nframe=    5 fps=0.3 q=41.3 size=       0KiB time=00:00:00.10 bitrate=   3.5kbits/s speed=0.00501x elapsed=0:00:19.96    \nframe=    5 fps=0.2 q=41.3 size=       0KiB time=00:00:00.10 bitrate=   3.5kbits/s speed=0.00488x elapsed=0:00:20.49    \nframe=    5 fps=0.2 q=41.3 size=       0KiB time=00:00:00.10 bitrate=   3.5kbits/s speed=0.00476x elapsed=0:00:21.01    \nframe=    5 fps=0.2 q=41.3 size=       0KiB time=00:00:00.10 bitrate=   3.5kbits/s speed=0.00464x elapsed=0:00:21.53    \nframe=    5 fps=0.2 q=41.3 size=       0KiB time=00:00:00.10 bitrate=   3.5kbits/s speed=0.00454x elapsed=0:00:22.04    \nframe=    5 fps=0.2 q=41.3 size=       0KiB time=00:00:00.10 bitrate=   3.5kbits/s speed=0.00443x elapsed=0:00:22.56    \nframe=    6 fps=0.3 q=35.4 size=       0KiB time=00:00:00.13 bitrate=   2.6kbits/s speed=0.00577x elapsed=0:00:23.09    \nframe=    6 fps=0.3 q=35.4 size=       0KiB time=00:00:00.13 bitrate=   2.6kbits/s speed=0.00565x elapsed=0:00:23.61    \nframe=    7 fps=0.3 q=38.1 size=       0KiB time=00:00:00.16 bitrate=   2.1kbits/s speed=0.00691x elapsed=0:00:24.13    \nframe=    7 fps=0.3 q=38.1 size=       0KiB time=00:00:00.16 bitrate=   2.1kbits/s speed=0.00676x elapsed=0:00:24.67    \nframe=    7 fps=0.3 q=38.1 size=       0KiB time=00:00:00.16 bitrate=   2.1kbits/s speed=0.00661x elapsed=0:00:25.21    \nframe=    7 fps=0.3 q=38.1 size=       0KiB time=00:00:00.16 bitrate=   2.1kbits/s speed=0.00648x elapsed=0:00:25.73    \nframe=    8 fps=0.3 q=39.1 size=       0KiB time=00:00:00.20 bitrate=   1.8kbits/s speed=0.00762x elapsed=0:00:26.25    \nframe=    8 fps=0.3 q=39.1 size=       0KiB time=00:00:00.20 bitrate=   1.8kbits/s speed=0.00747x elapsed=0:00:26.77    \nframe=    8 fps=0.3 q=39.1 size=       0KiB time=00:00:00.20 bitrate=   1.8kbits/s speed=0.00733x elapsed=0:00:27.28    \nframe=    8 fps=0.3 q=39.1 size=       0KiB time=00:00:00.20 bitrate=   1.8kbits/s speed=0.00719x elapsed=0:00:27.80    \nframe=    9 fps=0.3 q=37.6 size=       0KiB time=00:00:00.23 bitrate=   1.5kbits/s speed=0.00824x elapsed=0:00:28.32    \nframe=    9 fps=0.3 q=37.6 size=       0KiB time=00:00:00.23 bitrate=   1.5kbits/s speed=0.00808x elapsed=0:00:28.87    \nframe=    9 fps=0.3 q=37.6 size=       0KiB time=00:00:00.23 bitrate=   1.5kbits/s speed=0.00793x elapsed=0:00:29.40    \nframe=   10 fps=0.3 q=33.3 size=       0KiB time=00:00:00.26 bitrate=   1.3kbits/s speed=0.00891x elapsed=0:00:29.93    \nframe=   11 fps=0.4 q=37.4 size=       0KiB time=00:00:00.30 bitrate=   1.2kbits/s speed=0.00985x elapsed=0:00:30.45    \nframe=   11 fps=0.4 q=37.4 size=       0KiB time=00:00:00.30 bitrate=   1.2kbits/s speed=0.00969x elapsed=0:00:30.97    \nframe=   12 fps=0.4 q=38.3 size=       0KiB time=00:00:00.33 bitrate=   1.1kbits/s speed=0.0106x elapsed=0:00:31.48    \nframe=   12 fps=0.4 q=38.3 size=       0KiB time=00:00:00.33 bitrate=   1.1kbits/s speed=0.0104x elapsed=0:00:32.02    \nframe=   12 fps=0.4 q=38.3 size=       0KiB time=00:00:00.33 bitrate=   1.1kbits/s speed=0.0102x elapsed=0:00:32.54    \nframe=   13 fps=0.4 q=37.9 size=       0KiB time=00:00:00.36 bitrate=   1.0kbits/s speed=0.0111x elapsed=0:00:33.06    \nframe=   13 fps=0.4 q=37.9 size=       0KiB time=00:00:00.36 bitrate=   1.0kbits/s speed=0.0109x elapsed=0:00:33.58    \nframe=   13 fps=0.4 q=37.9 size=       0KiB time=00:00:00.36 bitrate=   1.0kbits/s speed=0.0108x elapsed=0:00:34.09    \nframe=   13 fps=0.4 q=37.9 size=       0KiB time=00:00:00.36 bitrate=   1.0kbits/s speed=0.0106x elapsed=0:00:34.61    \nframe=   14 fps=0.4 q=38.4 size=       0KiB time=00:00:00.40 bitrate=   0.9kbits/s speed=0.0114x elapsed=0:00:35.13    \nframe=   14 fps=0.4 q=38.4 size=       0KiB time=00:00:00.40 bitrate=   0.9kbits/s speed=0.0112x elapsed=0:00:35.63    \nframe=   14 fps=0.4 q=38.4 size=       0KiB time=00:00:00.40 bitrate=   0.9kbits/s speed=0.0111x elapsed=0:00:36.16    \nframe=   14 fps=0.4 q=38.4 size=       0KiB time=00:00:00.40 bitrate=   0.9kbits/s speed=0.0109x elapsed=0:00:36.67    \nframe=   16 fps=0.4 q=36.6 size=       0KiB time=00:00:00.46 bitrate=   0.8kbits/s speed=0.0125x elapsed=0:00:37.21    \nframe=   16 fps=0.4 q=36.6 size=       0KiB time=00:00:00.46 bitrate=   0.8kbits/s speed=0.0124x elapsed=0:00:37.74    \nframe=   16 fps=0.4 q=36.6 size=       0KiB time=00:00:00.46 bitrate=   0.8kbits/s speed=0.0122x elapsed=0:00:38.27    \nframe=   16 fps=0.4 q=36.6 size=       0KiB time=00:00:00.46 bitrate=   0.8kbits/s speed=0.012x elapsed=0:00:38.79    \nframe=   17 fps=0.4 q=38.5 size=       0KiB time=00:00:00.50 bitrate=   0.7kbits/s speed=0.0127x elapsed=0:00:39.29    \nframe=   17 fps=0.4 q=38.5 size=       0KiB time=00:00:00.50 bitrate=   0.7kbits/s speed=0.0126x elapsed=0:00:39.81    \nframe=   17 fps=0.4 q=38.5 size=       0KiB time=00:00:00.50 bitrate=   0.7kbits/s speed=0.0124x elapsed=0:00:40.33    \nframe=   17 fps=0.4 q=38.5 size=       0KiB time=00:00:00.50 bitrate=   0.7kbits/s speed=0.0122x elapsed=0:00:40.89    \nframe=   18 fps=0.4 q=38.2 size=       0KiB time=00:00:00.53 bitrate=   0.7kbits/s speed=0.0129x elapsed=0:00:41.40    \nframe=   18 fps=0.4 q=38.2 size=       0KiB time=00:00:00.53 bitrate=   0.7kbits/s speed=0.0127x elapsed=0:00:41.92    \nframe=   18 fps=0.4 q=38.2 size=       0KiB time=00:00:00.53 bitrate=   0.7kbits/s speed=0.0126x elapsed=0:00:42.43    \nframe=   19 fps=0.4 q=34.0 size=       0KiB time=00:00:00.56 bitrate=   0.6kbits/s speed=0.0132x elapsed=0:00:42.97    \nframe=   20 fps=0.5 q=36.2 size=       0KiB time=00:00:00.60 bitrate=   0.6kbits/s speed=0.0138x elapsed=0:00:43.51    \nframe=   20 fps=0.5 q=36.2 size=       0KiB time=00:00:00.60 bitrate=   0.6kbits/s speed=0.0136x elapsed=0:00:44.04    \nframe=   20 fps=0.4 q=36.2 size=       0KiB time=00:00:00.60 bitrate=   0.6kbits/s speed=0.0135x elapsed=0:00:44.54    \nframe=   20 fps=0.4 q=36.2 size=       0KiB time=00:00:00.60 bitrate=   0.6kbits/s speed=0.0133x elapsed=0:00:45.08    \nframe=   21 fps=0.5 q=38.3 size=       0KiB time=00:00:00.63 bitrate=   0.6kbits/s speed=0.0139x elapsed=0:00:45.59    \nframe=   21 fps=0.5 q=38.3 size=       0KiB time=00:00:00.63 bitrate=   0.6kbits/s speed=0.0137x elapsed=0:00:46.11    \nframe=   21 fps=0.5 q=38.3 size=       0KiB time=00:00:00.63 bitrate=   0.6kbits/s speed=0.0136x elapsed=0:00:46.63    \nframe=   21 fps=0.4 q=38.3 size=       0KiB time=00:00:00.63 bitrate=   0.6kbits/s speed=0.0134x elapsed=0:00:47.16    \nframe=   21 fps=0.4 q=38.3 size=       0KiB time=00:00:00.63 bitrate=   0.6kbits/s speed=0.0133x elapsed=0:00:47.67    \nframe=   22 fps=0.5 q=38.6 size=       0KiB time=00:00:00.66 bitrate=   0.5kbits/s speed=0.0138x elapsed=0:00:48.20    \nframe=   22 fps=0.5 q=38.6 size=       0KiB time=00:00:00.66 bitrate=   0.5kbits/s speed=0.0137x elapsed=0:00:48.74    \nframe=   22 fps=0.4 q=38.6 size=       0KiB time=00:00:00.66 bitrate=   0.5kbits/s speed=0.0135x elapsed=0:00:49.30    \nframe=   23 fps=0.5 q=34.0 size=     256KiB time=00:00:00.70 bitrate=2996.4kbits/s speed=0.014x elapsed=0:00:49.82    \nframe=   23 fps=0.5 q=34.0 size=     256KiB time=00:00:00.70 bitrate=2996.4kbits/s speed=0.0139x elapsed=0:00:50.37    \nframe=   23 fps=0.5 q=34.0 size=     256KiB time=00:00:00.70 bitrate=2996.4kbits/s speed=0.0137x elapsed=0:00:50.91    \nframe=   24 fps=0.5 q=36.6 size=     256KiB time=00:00:00.73 bitrate=2860.2kbits/s speed=0.0143x elapsed=0:00:51.44    \nframe=   24 fps=0.5 q=36.6 size=     256KiB time=00:00:00.73 bitrate=2860.2kbits/s speed=0.0141x elapsed=0:00:51.95    \nframe=   24 fps=0.5 q=36.6 size=     256KiB time=00:00:00.73 bitrate=2860.2kbits/s speed=0.014x elapsed=0:00:52.47    \nframe=   25 fps=0.5 q=38.6 size=     256KiB time=00:00:00.76 bitrate=2735.9kbits/s speed=0.0145x elapsed=0:00:52.99    \nframe=   25 fps=0.5 q=38.6 size=     256KiB time=00:00:00.76 bitrate=2735.9kbits/s speed=0.0143x elapsed=0:00:53.51    \nframe=   25 fps=0.5 q=38.6 size=     256KiB time=00:00:00.76 bitrate=2735.9kbits/s speed=0.0142x elapsed=0:00:54.02    \nframe=   26 fps=0.5 q=38.7 size=     256KiB time=00:00:00.80 bitrate=2621.9kbits/s speed=0.0147x elapsed=0:00:54.52    \nframe=   26 fps=0.5 q=38.7 size=     256KiB time=00:00:00.80 bitrate=2621.9kbits/s speed=0.0145x elapsed=0:00:55.05    \nframe=   27 fps=0.5 q=35.1 size=     256KiB time=00:00:00.83 bitrate=2517.0kbits/s speed=0.015x elapsed=0:00:55.57    \nframe=   28 fps=0.5 q=36.7 size=     256KiB time=00:00:00.86 bitrate=2420.2kbits/s speed=0.0155x elapsed=0:00:56.08    \nframe=   28 fps=0.5 q=36.7 size=     256KiB time=00:00:00.86 bitrate=2420.2kbits/s speed=0.0153x elapsed=0:00:56.60    \nframe=   29 fps=0.5 q=38.6 size=     256KiB time=00:00:00.90 bitrate=2330.6kbits/s speed=0.0158x elapsed=0:00:57.12    \nframe=   29 fps=0.5 q=38.6 size=     256KiB time=00:00:00.90 bitrate=2330.6kbits/s speed=0.0156x elapsed=0:00:57.64    \nframe=   30 fps=0.5 q=39.0 size=     256KiB time=00:00:00.93 bitrate=2247.3kbits/s speed=0.016x elapsed=0:00:58.16    \nframe=   30 fps=0.5 q=39.0 size=     256KiB time=00:00:00.93 bitrate=2247.3kbits/s speed=0.0159x elapsed=0:00:58.67    \nframe=   30 fps=0.5 q=39.0 size=     256KiB time=00:00:00.93 bitrate=2247.3kbits/s speed=0.0158x elapsed=0:00:59.18    \nframe=   32 fps=0.5 q=36.3 size=     256KiB time=00:00:01.00 bitrate=2097.5kbits/s speed=0.0167x elapsed=0:00:59.71    \nframe=   32 fps=0.5 q=36.3 size=     256KiB time=00:00:01.00 bitrate=2097.5kbits/s speed=0.0166x elapsed=0:01:00.22    \nframe=   32 fps=0.5 q=36.3 size=     256KiB time=00:00:01.00 bitrate=2097.5kbits/s speed=0.0165x elapsed=0:01:00.73    \nframe=   33 fps=0.5 q=38.6 size=     256KiB time=00:00:01.03 bitrate=2029.8kbits/s speed=0.0169x elapsed=0:01:01.25    \nframe=   34 fps=0.6 q=39.1 size=     256KiB time=00:00:01.06 bitrate=1966.4kbits/s speed=0.0173x elapsed=0:01:01.77    \nframe=   34 fps=0.5 q=39.1 size=     256KiB time=00:00:01.06 bitrate=1966.4kbits/s speed=0.0171x elapsed=0:01:02.28    \nframe=   35 fps=0.6 q=34.3 size=     256KiB time=00:00:01.10 bitrate=1906.8kbits/s speed=0.0175x elapsed=0:01:02.79    \nframe=   35 fps=0.6 q=34.3 size=     256KiB time=00:00:01.10 bitrate=1906.8kbits/s speed=0.0174x elapsed=0:01:03.32    \nframe=   36 fps=0.6 q=36.6 size=     256KiB time=00:00:01.13 bitrate=1850.7kbits/s speed=0.0178x elapsed=0:01:03.84    \nframe=   36 fps=0.6 q=36.6 size=     256KiB time=00:00:01.13 bitrate=1850.7kbits/s speed=0.0176x elapsed=0:01:04.41    \nframe=   36 fps=0.6 q=36.6 size=     256KiB time=00:00:01.13 bitrate=1850.7kbits/s speed=0.0175x elapsed=0:01:04.94    \nframe=   36 fps=0.5 q=36.6 size=     256KiB time=00:00:01.13 bitrate=1850.7kbits/s speed=0.0173x elapsed=0:01:05.46    \nframe=   36 fps=0.5 q=36.6 size=     256KiB time=00:00:01.13 bitrate=1850.7kbits/s speed=0.0172x elapsed=0:01:06.00    \nframe=   37 fps=0.6 q=38.6 size=     256KiB time=00:00:01.16 bitrate=1797.9kbits/s speed=0.0175x elapsed=0:01:06.53    \nframe=   37 fps=0.6 q=38.6 size=     256KiB time=00:00:01.16 bitrate=1797.9kbits/s speed=0.0174x elapsed=0:01:07.05    \nframe=   37 fps=0.5 q=38.6 size=     256KiB time=00:00:01.16 bitrate=1797.9kbits/s speed=0.0173x elapsed=0:01:07.57    \nframe=   37 fps=0.5 q=38.6 size=     256KiB time=00:00:01.16 bitrate=1797.9kbits/s speed=0.0171x elapsed=0:01:08.12    \nframe=   38 fps=0.6 q=38.4 size=     256KiB time=00:00:01.20 bitrate=1747.9kbits/s speed=0.0175x elapsed=0:01:08.67    \nframe=   38 fps=0.5 q=38.4 size=     256KiB time=00:00:01.20 bitrate=1747.9kbits/s speed=0.0173x elapsed=0:01:09.19    \nframe=   38 fps=0.5 q=38.4 size=     256KiB time=00:00:01.20 bitrate=1747.9kbits/s speed=0.0172x elapsed=0:01:09.71    \nframe=   39 fps=0.6 q=33.8 size=     256KiB time=00:00:01.23 bitrate=1700.7kbits/s speed=0.0176x elapsed=0:01:10.23    \nframe=   39 fps=0.6 q=33.8 size=     256KiB time=00:00:01.23 bitrate=1700.7kbits/s speed=0.0174x elapsed=0:01:10.74    \nframe=   40 fps=0.6 q=36.8 size=     256KiB time=00:00:01.26 bitrate=1655.9kbits/s speed=0.0178x elapsed=0:01:11.29    \nframe=   40 fps=0.6 q=36.8 size=     256KiB time=00:00:01.26 bitrate=1655.9kbits/s speed=0.0176x elapsed=0:01:11.79    \nframe=   40 fps=0.6 q=36.8 size=     256KiB time=00:00:01.26 bitrate=1655.9kbits/s speed=0.0175x elapsed=0:01:12.31    \nframe=   40 fps=0.5 q=36.8 size=     256KiB time=00:00:01.26 bitrate=1655.9kbits/s speed=0.0174x elapsed=0:01:12.83    \nframe=   40 fps=0.5 q=36.8 size=     256KiB time=00:00:01.26 bitrate=1655.9kbits/s speed=0.0173x elapsed=0:01:13.36    \nframe=   40 fps=0.5 q=36.8 size=     256KiB time=00:00:01.26 bitrate=1655.9kbits/s speed=0.0171x elapsed=0:01:13.87    \nframe=   40 fps=0.5 q=36.8 size=     256KiB time=00:00:01.26 bitrate=1655.9kbits/s speed=0.017x elapsed=0:01:14.39    \nframe=   40 fps=0.5 q=36.8 size=     256KiB time=00:00:01.26 bitrate=1655.9kbits/s speed=0.0169x elapsed=0:01:14.90    \nframe=   40 fps=0.5 q=36.8 size=     256KiB time=00:00:01.26 bitrate=1655.9kbits/s speed=0.0168x elapsed=0:01:15.42    \nframe=   41 fps=0.5 q=38.5 size=     256KiB time=00:00:01.30 bitrate=1613.5kbits/s speed=0.0171x elapsed=0:01:15.94    \nframe=   41 fps=0.5 q=38.5 size=     256KiB time=00:00:01.30 bitrate=1613.5kbits/s speed=0.017x elapsed=0:01:16.48    \nframe=   41 fps=0.5 q=38.5 size=     256KiB time=00:00:01.30 bitrate=1613.5kbits/s speed=0.0169x elapsed=0:01:17.01    \nframe=   41 fps=0.5 q=38.5 size=     256KiB time=00:00:01.30 bitrate=1613.5kbits/s speed=0.0168x elapsed=0:01:17.55    \nframe=   41 fps=0.5 q=38.5 size=     256KiB time=00:00:01.30 bitrate=1613.5kbits/s speed=0.0167x elapsed=0:01:18.07    \nframe=   41 fps=0.5 q=38.5 size=     256KiB time=00:00:01.30 bitrate=1613.5kbits/s speed=0.0165x elapsed=0:01:18.59    \nframe=   41 fps=0.5 q=38.5 size=     256KiB time=00:00:01.30 bitrate=1613.5kbits/s speed=0.0164x elapsed=0:01:19.12    \nframe=   42 fps=0.5 q=34.7 size=     256KiB time=00:00:01.33 bitrate=1573.1kbits/s speed=0.0167x elapsed=0:01:19.64    \nframe=   42 fps=0.5 q=34.7 size=     256KiB time=00:00:01.33 bitrate=1573.1kbits/s speed=0.0166x elapsed=0:01:20.16    \nframe=   42 fps=0.5 q=34.7 size=     256KiB time=00:00:01.33 bitrate=1573.1kbits/s speed=0.0165x elapsed=0:01:20.67    \nframe=   43 fps=0.5 q=36.3 size=     512KiB time=00:00:01.36 bitrate=3069.3kbits/s speed=0.0168x elapsed=0:01:21.21    \nframe=   43 fps=0.5 q=36.3 size=     512KiB time=00:00:01.36 bitrate=3069.3kbits/s speed=0.0167x elapsed=0:01:21.72    \nframe=   44 fps=0.5 q=38.4 size=     512KiB time=00:00:01.40 bitrate=2996.2kbits/s speed=0.017x elapsed=0:01:22.24    \nframe=   44 fps=0.5 q=38.4 size=     512KiB time=00:00:01.40 bitrate=2996.2kbits/s speed=0.0169x elapsed=0:01:22.75    \nframe=   44 fps=0.5 q=38.4 size=     512KiB time=00:00:01.40 bitrate=2996.2kbits/s speed=0.0168x elapsed=0:01:23.27    \nframe=   44 fps=0.5 q=38.4 size=     512KiB time=00:00:01.40 bitrate=2996.2kbits/s speed=0.0167x elapsed=0:01:23.79    \nframe=   44 fps=0.5 q=38.4 size=     512KiB time=00:00:01.40 bitrate=2996.2kbits/s speed=0.0166x elapsed=0:01:24.38    \nframe=   45 fps=0.5 q=38.6 size=     512KiB time=00:00:01.43 bitrate=2926.5kbits/s speed=0.0169x elapsed=0:01:24.93    \nframe=   45 fps=0.5 q=38.6 size=     512KiB time=00:00:01.43 bitrate=2926.5kbits/s speed=0.0168x elapsed=0:01:25.47    \nframe=   45 fps=0.5 q=38.6 size=     512KiB time=00:00:01.43 bitrate=2926.5kbits/s speed=0.0167x elapsed=0:01:26.00    \nframe=   45 fps=0.5 q=38.6 size=     512KiB time=00:00:01.43 bitrate=2926.5kbits/s speed=0.0166x elapsed=0:01:26.53    \nframe=   45 fps=0.5 q=38.6 size=     512KiB time=00:00:01.43 bitrate=2926.5kbits/s speed=0.0165x elapsed=0:01:27.07    \nframe=   45 fps=0.5 q=38.6 size=     512KiB time=00:00:01.43 bitrate=2926.5kbits/s speed=0.0164x elapsed=0:01:27.59    \nframe=   45 fps=0.5 q=38.6 size=     512KiB time=00:00:01.43 bitrate=2926.5kbits/s speed=0.0163x elapsed=0:01:28.16    \nframe=   46 fps=0.5 q=33.7 size=     512KiB time=00:00:01.46 bitrate=2860.0kbits/s speed=0.0165x elapsed=0:01:28.69    \nframe=   46 fps=0.5 q=33.7 size=     512KiB time=00:00:01.46 bitrate=2860.0kbits/s speed=0.0164x elapsed=0:01:29.29    \nframe=   46 fps=0.5 q=33.7 size=     512KiB time=00:00:01.46 bitrate=2860.0kbits/s speed=0.0163x elapsed=0:01:29.85    \nframe=   46 fps=0.5 q=33.7 size=     512KiB time=00:00:01.46 bitrate=2860.0kbits/s speed=0.0162x elapsed=0:01:30.47    \nframe=   46 fps=0.5 q=33.7 size=     512KiB time=00:00:01.46 bitrate=2860.0kbits/s speed=0.0161x elapsed=0:01:31.06    \nframe=   46 fps=0.5 q=33.7 size=     512KiB time=00:00:01.46 bitrate=2860.0kbits/s speed=0.016x elapsed=0:01:31.63    \nframe=   47 fps=0.5 q=36.6 size=     512KiB time=00:00:01.50 bitrate=2796.4kbits/s speed=0.0163x elapsed=0:01:32.21    \nframe=   47 fps=0.5 q=36.6 size=     512KiB time=00:00:01.50 bitrate=2796.4kbits/s speed=0.0162x elapsed=0:01:32.78    \nframe=   47 fps=0.5 q=36.6 size=     512KiB time=00:00:01.50 bitrate=2796.4kbits/s speed=0.0161x elapsed=0:01:33.36    \nframe=   47 fps=0.5 q=36.6 size=     512KiB time=00:00:01.50 bitrate=2796.4kbits/s speed=0.016x elapsed=0:01:33.92    \nframe=   47 fps=0.5 q=36.6 size=     512KiB time=00:00:01.50 bitrate=2796.4kbits/s speed=0.0159x elapsed=0:01:34.49    \nframe=   47 fps=0.5 q=36.6 size=     512KiB time=00:00:01.50 bitrate=2796.4kbits/s speed=0.0158x elapsed=0:01:35.01    \nframe=   47 fps=0.5 q=36.6 size=     512KiB time=00:00:01.50 bitrate=2796.4kbits/s speed=0.0157x elapsed=0:01:35.53    \nframe=   48 fps=0.5 q=38.6 size=     512KiB time=00:00:01.53 bitrate=2735.6kbits/s speed=0.016x elapsed=0:01:36.05    \nframe=   48 fps=0.5 q=38.6 size=     512KiB time=00:00:01.53 bitrate=2735.6kbits/s speed=0.0159x elapsed=0:01:36.58    \nframe=   48 fps=0.5 q=38.6 size=     512KiB time=00:00:01.53 bitrate=2735.6kbits/s speed=0.0158x elapsed=0:01:37.14    \nframe=   49 fps=0.5 q=38.6 size=     512KiB time=00:00:01.56 bitrate=2677.4kbits/s speed=0.016x elapsed=0:01:37.65    \nframe=   49 fps=0.5 q=38.6 size=     512KiB time=00:00:01.56 bitrate=2677.4kbits/s speed=0.016x elapsed=0:01:38.17    \nframe=   49 fps=0.5 q=38.6 size=     512KiB time=00:00:01.56 bitrate=2677.4kbits/s speed=0.0159x elapsed=0:01:38.69    \nframe=   49 fps=0.5 q=38.6 size=     512KiB time=00:00:01.56 bitrate=2677.4kbits/s speed=0.0158x elapsed=0:01:39.20    \nframe=   49 fps=0.5 q=38.6 size=     512KiB time=00:00:01.56 bitrate=2677.4kbits/s speed=0.0157x elapsed=0:01:39.73    \nframe=   49 fps=0.5 q=38.6 size=     512KiB time=00:00:01.56 bitrate=2677.4kbits/s speed=0.0156x elapsed=0:01:40.25    \nframe=   49 fps=0.5 q=38.6 size=     512KiB time=00:00:01.56 bitrate=2677.4kbits/s speed=0.0155x elapsed=0:01:40.78    \nframe=   49 fps=0.5 q=38.6 size=     512KiB time=00:00:01.56 bitrate=2677.4kbits/s speed=0.0155x elapsed=0:01:41.36    \nframe=   49 fps=0.5 q=38.6 size=     512KiB time=00:00:01.56 bitrate=2677.4kbits/s speed=0.0154x elapsed=0:01:41.88    \nframe=   50 fps=0.5 q=34.2 size=     512KiB time=00:00:01.60 bitrate=2621.7kbits/s speed=0.0156x elapsed=0:01:42.39    \nframe=   51 fps=0.5 q=37.2 size=     512KiB time=00:00:01.63 bitrate=2568.2kbits/s speed=0.0159x elapsed=0:01:42.90    \nframe=   51 fps=0.5 q=37.2 size=     512KiB time=00:00:01.63 bitrate=2568.2kbits/s speed=0.0158x elapsed=0:01:43.42    \nframe=   52 fps=0.5 q=38.6 size=     512KiB time=00:00:01.66 bitrate=2516.8kbits/s speed=0.016x elapsed=0:01:43.94    \nframe=   52 fps=0.5 q=38.6 size=     512KiB time=00:00:01.66 bitrate=2516.8kbits/s speed=0.016x elapsed=0:01:44.45    \nframe=   53 fps=0.5 q=38.7 size=     512KiB time=00:00:01.70 bitrate=2467.4kbits/s speed=0.0162x elapsed=0:01:44.96    \nframe=   53 fps=0.5 q=38.7 size=     512KiB time=00:00:01.70 bitrate=2467.4kbits/s speed=0.0161x elapsed=0:01:45.49    \nframe=   53 fps=0.5 q=38.7 size=     512KiB time=00:00:01.70 bitrate=2467.4kbits/s speed=0.016x elapsed=0:01:46.01    \nframe=   53 fps=0.5 q=38.7 size=     512KiB time=00:00:01.70 bitrate=2467.4kbits/s speed=0.016x elapsed=0:01:46.54    \nframe=   54 fps=0.5 q=38.5 size=     512KiB time=00:00:01.73 bitrate=2420.0kbits/s speed=0.0162x elapsed=0:01:47.06    \nframe=   54 fps=0.5 q=38.5 size=     512KiB time=00:00:01.73 bitrate=2420.0kbits/s speed=0.0161x elapsed=0:01:47.60    \nframe=   54 fps=0.5 q=38.5 size=     512KiB time=00:00:01.73 bitrate=2420.0kbits/s speed=0.016x elapsed=0:01:48.11    \nframe=   55 fps=0.5 q=34.3 size=     512KiB time=00:00:01.76 bitrate=2374.3kbits/s speed=0.0163x elapsed=0:01:48.64    \nframe=   55 fps=0.5 q=34.3 size=     512KiB time=00:00:01.76 bitrate=2374.3kbits/s speed=0.0162x elapsed=0:01:49.16    \nframe=   55 fps=0.5 q=34.3 size=     512KiB time=00:00:01.76 bitrate=2374.3kbits/s speed=0.0161x elapsed=0:01:49.67    \nframe=   56 fps=0.5 q=36.8 size=     512KiB time=00:00:01.80 bitrate=2330.4kbits/s speed=0.0163x elapsed=0:01:50.19    \nframe=   56 fps=0.5 q=36.8 size=     512KiB time=00:00:01.80 bitrate=2330.4kbits/s speed=0.0163x elapsed=0:01:50.70    \nframe=   56 fps=0.5 q=36.8 size=     512KiB time=00:00:01.80 bitrate=2330.4kbits/s speed=0.0162x elapsed=0:01:51.22    \nframe=   56 fps=0.5 q=36.8 size=     512KiB time=00:00:01.80 bitrate=2330.4kbits/s speed=0.0161x elapsed=0:01:51.74    \nframe=   57 fps=0.5 q=38.6 size=     512KiB time=00:00:01.83 bitrate=2288.0kbits/s speed=0.0163x elapsed=0:01:52.27    \nframe=   57 fps=0.5 q=38.6 size=     512KiB time=00:00:01.83 bitrate=2288.0kbits/s speed=0.0162x elapsed=0:01:52.82    \nframe=   57 fps=0.5 q=38.6 size=     512KiB time=00:00:01.83 bitrate=2288.0kbits/s speed=0.0162x elapsed=0:01:53.34    \nframe=   57 fps=0.5 q=38.6 size=     512KiB time=00:00:01.83 bitrate=2288.0kbits/s speed=0.0161x elapsed=0:01:53.85    \nframe=   58 fps=0.5 q=34.9 size=     512KiB time=00:00:01.86 bitrate=2247.1kbits/s speed=0.0163x elapsed=0:01:54.38    \nframe=   59 fps=0.5 q=36.3 size=     512KiB time=00:00:01.90 bitrate=2207.7kbits/s speed=0.0165x elapsed=0:01:54.89    \nframe=   59 fps=0.5 q=36.3 size=     512KiB time=00:00:01.90 bitrate=2207.7kbits/s speed=0.0165x elapsed=0:01:55.43    \nframe=   59 fps=0.5 q=36.3 size=     512KiB time=00:00:01.90 bitrate=2207.7kbits/s speed=0.0164x elapsed=0:01:55.95    \nframe=   60 fps=0.5 q=38.7 size=     512KiB time=00:00:01.93 bitrate=2169.7kbits/s speed=0.0166x elapsed=0:01:56.50    \nframe=   60 fps=0.5 q=38.7 size=     512KiB time=00:00:01.93 bitrate=2169.7kbits/s speed=0.0165x elapsed=0:01:57.02    \nframe=   61 fps=0.5 q=38.7 size=     512KiB time=00:00:01.96 bitrate=2132.9kbits/s speed=0.0167x elapsed=0:01:57.56    \nframe=   61 fps=0.5 q=38.7 size=     512KiB time=00:00:01.96 bitrate=2132.9kbits/s speed=0.0167x elapsed=0:01:58.09    \nframe=   61 fps=0.5 q=38.7 size=     512KiB time=00:00:01.96 bitrate=2132.9kbits/s speed=0.0166x elapsed=0:01:58.63    \nframe=   62 fps=0.5 q=35.2 size=     512KiB time=00:00:02.00 bitrate=2097.3kbits/s speed=0.0168x elapsed=0:01:59.15    \nframe=   62 fps=0.5 q=35.2 size=     512KiB time=00:00:02.00 bitrate=2097.3kbits/s speed=0.0167x elapsed=0:01:59.69    \nframe=   62 fps=0.5 q=35.2 size=     512KiB time=00:00:02.00 bitrate=2097.3kbits/s speed=0.0166x elapsed=0:02:00.24    \nframe=   62 fps=0.5 q=35.2 size=     512KiB time=00:00:02.00 bitrate=2097.3kbits/s speed=0.0166x elapsed=0:02:00.78    \nframe=   62 fps=0.5 q=35.2 size=     512KiB time=00:00:02.00 bitrate=2097.3kbits/s speed=0.0165x elapsed=0:02:01.31    \nframe=   63 fps=0.5 q=36.4 size=     768KiB time=00:00:02.03 bitrate=3094.3kbits/s speed=0.0167x elapsed=0:02:01.83    \nframe=   63 fps=0.5 q=36.4 size=     768KiB time=00:00:02.03 bitrate=3094.3kbits/s speed=0.0166x elapsed=0:02:02.36    \nframe=   63 fps=0.5 q=36.4 size=     768KiB time=00:00:02.03 bitrate=3094.3kbits/s speed=0.0165x elapsed=0:02:02.90    \nframe=   63 fps=0.5 q=36.4 size=     768KiB time=00:00:02.03 bitrate=3094.3kbits/s speed=0.0165x elapsed=0:02:03.42    \nframe=   63 fps=0.5 q=36.4 size=     768KiB time=00:00:02.03 bitrate=3094.3kbits/s speed=0.0164x elapsed=0:02:03.97    \nframe=   63 fps=0.5 q=36.4 size=     768KiB time=00:00:02.03 bitrate=3094.3kbits/s speed=0.0163x elapsed=0:02:04.50    \nframe=   63 fps=0.5 q=36.4 size=     768KiB time=00:00:02.03 bitrate=3094.3kbits/s speed=0.0163x elapsed=0:02:05.02    \nframe=   65 fps=0.5 q=38.9 size=     768KiB time=00:00:02.10 bitrate=2996.1kbits/s speed=0.0167x elapsed=0:02:05.54    \nframe=   65 fps=0.5 q=38.9 size=     768KiB time=00:00:02.10 bitrate=2996.1kbits/s speed=0.0167x elapsed=0:02:06.07    \nframe=   66 fps=0.5 q=35.0 size=     768KiB time=00:00:02.13 bitrate=2949.3kbits/s speed=0.0168x elapsed=0:02:06.61    \nframe=   66 fps=0.5 q=35.0 size=     768KiB time=00:00:02.13 bitrate=2949.3kbits/s speed=0.0168x elapsed=0:02:07.13    \nframe=   66 fps=0.5 q=35.0 size=     768KiB time=00:00:02.13 bitrate=2949.3kbits/s speed=0.0167x elapsed=0:02:07.65    \nframe=   66 fps=0.5 q=35.0 size=     768KiB time=00:00:02.13 bitrate=2949.3kbits/s speed=0.0166x elapsed=0:02:08.19    \nframe=   66 fps=0.5 q=35.0 size=     768KiB time=00:00:02.13 bitrate=2949.3kbits/s speed=0.0166x elapsed=0:02:08.73    \nframe=   67 fps=0.5 q=36.9 size=     768KiB time=00:00:02.16 bitrate=2903.9kbits/s speed=0.0168x elapsed=0:02:09.26    \nframe=   67 fps=0.5 q=36.9 size=     768KiB time=00:00:02.16 bitrate=2903.9kbits/s speed=0.0167x elapsed=0:02:09.79    \nframe=   67 fps=0.5 q=36.9 size=     768KiB time=00:00:02.16 bitrate=2903.9kbits/s speed=0.0166x elapsed=0:02:10.31    \nframe=   67 fps=0.5 q=36.9 size=     768KiB time=00:00:02.16 bitrate=2903.9kbits/s speed=0.0166x elapsed=0:02:10.84    \nframe=   68 fps=0.5 q=39.0 size=     768KiB time=00:00:02.20 bitrate=2859.9kbits/s speed=0.0167x elapsed=0:02:11.36    \nframe=   68 fps=0.5 q=39.0 size=     768KiB time=00:00:02.20 bitrate=2859.9kbits/s speed=0.0167x elapsed=0:02:11.89    \nframe=   68 fps=0.5 q=39.0 size=     768KiB time=00:00:02.20 bitrate=2859.9kbits/s speed=0.0166x elapsed=0:02:12.48    \nframe=   68 fps=0.5 q=39.0 size=     768KiB time=00:00:02.20 bitrate=2859.9kbits/s speed=0.0165x elapsed=0:02:13.06    \nframe=   68 fps=0.5 q=39.0 size=     768KiB time=00:00:02.20 bitrate=2859.9kbits/s speed=0.0165x elapsed=0:02:13.66    \nframe=   68 fps=0.5 q=39.0 size=     768KiB time=00:00:02.20 bitrate=2859.9kbits/s speed=0.0164x elapsed=0:02:14.19    \nframe=   68 fps=0.5 q=39.0 size=     768KiB time=00:00:02.20 bitrate=2859.9kbits/s speed=0.0163x elapsed=0:02:14.73    \nframe=   69 fps=0.5 q=35.1 size=     768KiB time=00:00:02.23 bitrate=2817.2kbits/s speed=0.0165x elapsed=0:02:15.26    \nframe=   69 fps=0.5 q=35.1 size=     768KiB time=00:00:02.23 bitrate=2817.2kbits/s speed=0.0164x elapsed=0:02:15.76    \nframe=   69 fps=0.5 q=35.1 size=     768KiB time=00:00:02.23 bitrate=2817.2kbits/s speed=0.0164x elapsed=0:02:16.28    \nframe=   69 fps=0.5 q=35.1 size=     768KiB time=00:00:02.23 bitrate=2817.2kbits/s speed=0.0163x elapsed=0:02:16.81    \nframe=   69 fps=0.5 q=35.1 size=     768KiB time=00:00:02.23 bitrate=2817.2kbits/s speed=0.0163x elapsed=0:02:17.36    \nframe=   69 fps=0.5 q=35.1 size=     768KiB time=00:00:02.23 bitrate=2817.2kbits/s speed=0.0162x elapsed=0:02:17.91    \nframe=   69 fps=0.5 q=35.1 size=     768KiB time=00:00:02.23 bitrate=2817.2kbits/s speed=0.0161x elapsed=0:02:18.44    \nframe=   70 fps=0.5 q=36.5 size=     768KiB time=00:00:02.26 bitrate=2775.8kbits/s speed=0.0163x elapsed=0:02:18.99    \nframe=   70 fps=0.5 q=36.5 size=     768KiB time=00:00:02.26 bitrate=2775.8kbits/s speed=0.0162x elapsed=0:02:19.56    \nframe=   70 fps=0.5 q=36.5 size=     768KiB time=00:00:02.26 bitrate=2775.8kbits/s speed=0.0162x elapsed=0:02:20.09    \nframe=   71 fps=0.5 q=39.2 size=     768KiB time=00:00:02.30 bitrate=2735.6kbits/s speed=0.0163x elapsed=0:02:20.69    \nframe=   71 fps=0.5 q=39.2 size=     768KiB time=00:00:02.30 bitrate=2735.6kbits/s speed=0.0163x elapsed=0:02:21.26    \nframe=   71 fps=0.5 q=39.2 size=     768KiB time=00:00:02.30 bitrate=2735.6kbits/s speed=0.0162x elapsed=0:02:21.84    \nframe=   71 fps=0.5 q=39.2 size=     768KiB time=00:00:02.30 bitrate=2735.6kbits/s speed=0.0161x elapsed=0:02:22.48    \nframe=   71 fps=0.5 q=39.2 size=     768KiB time=00:00:02.30 bitrate=2735.6kbits/s speed=0.0161x elapsed=0:02:23.09    \nframe=   71 fps=0.5 q=39.2 size=     768KiB time=00:00:02.30 bitrate=2735.6kbits/s speed=0.016x elapsed=0:02:23.62    \nframe=   71 fps=0.5 q=39.2 size=     768KiB time=00:00:02.30 bitrate=2735.6kbits/s speed=0.016x elapsed=0:02:24.14    \nframe=   71 fps=0.5 q=39.2 size=     768KiB time=00:00:02.30 bitrate=2735.6kbits/s speed=0.0159x elapsed=0:02:24.69    \nframe=   71 fps=0.5 q=39.2 size=     768KiB time=00:00:02.30 bitrate=2735.6kbits/s speed=0.0158x elapsed=0:02:25.24    \nframe=   71 fps=0.5 q=39.2 size=     768KiB time=00:00:02.30 bitrate=2735.6kbits/s speed=0.0158x elapsed=0:02:25.80    \nframe=   71 fps=0.5 q=39.2 size=     768KiB time=00:00:02.30 bitrate=2735.6kbits/s speed=0.0157x elapsed=0:02:26.33    \nframe=   72 fps=0.5 q=34.8 size=     768KiB time=00:00:02.33 bitrate=2696.5kbits/s speed=0.0159x elapsed=0:02:26.84    \nframe=   72 fps=0.5 q=34.8 size=     768KiB time=00:00:02.33 bitrate=2696.5kbits/s speed=0.0158x elapsed=0:02:27.36    \nframe=   72 fps=0.5 q=34.8 size=     768KiB time=00:00:02.33 bitrate=2696.5kbits/s speed=0.0158x elapsed=0:02:27.87    \nframe=   72 fps=0.5 q=34.8 size=     768KiB time=00:00:02.33 bitrate=2696.5kbits/s speed=0.0157x elapsed=0:02:28.38    \nframe=   72 fps=0.5 q=34.8 size=     768KiB time=00:00:02.33 bitrate=2696.5kbits/s speed=0.0157x elapsed=0:02:28.90    \nframe=   73 fps=0.5 q=37.4 size=     768KiB time=00:00:02.36 bitrate=2658.5kbits/s speed=0.0158x elapsed=0:02:29.42    \nframe=   73 fps=0.5 q=37.4 size=     768KiB time=00:00:02.36 bitrate=2658.5kbits/s speed=0.0158x elapsed=0:02:29.93    \nframe=   73 fps=0.5 q=37.4 size=     768KiB time=00:00:02.36 bitrate=2658.5kbits/s speed=0.0157x elapsed=0:02:30.45    \nframe=   75 fps=0.5 q=39.4 size=     768KiB time=00:00:02.43 bitrate=2585.7kbits/s speed=0.0161x elapsed=0:02:30.99    \nframe=   75 fps=0.5 q=39.4 size=     768KiB time=00:00:02.43 bitrate=2585.7kbits/s speed=0.0161x elapsed=0:02:31.51    \nframe=   76 fps=0.5 q=35.2 size=     768KiB time=00:00:02.46 bitrate=2550.7kbits/s speed=0.0162x elapsed=0:02:32.03    \nframe=   76 fps=0.5 q=35.2 size=     768KiB time=00:00:02.46 bitrate=2550.7kbits/s speed=0.0162x elapsed=0:02:32.57    \nframe=   76 fps=0.5 q=35.2 size=     768KiB time=00:00:02.46 bitrate=2550.7kbits/s speed=0.0161x elapsed=0:02:33.09    \nframe=   77 fps=0.5 q=37.5 size=     768KiB time=00:00:02.50 bitrate=2516.7kbits/s speed=0.0163x elapsed=0:02:33.62    \nframe=   77 fps=0.5 q=37.5 size=     768KiB time=00:00:02.50 bitrate=2516.7kbits/s speed=0.0162x elapsed=0:02:34.16    \nframe=   77 fps=0.5 q=37.5 size=     768KiB time=00:00:02.50 bitrate=2516.7kbits/s speed=0.0162x elapsed=0:02:34.67    \nframe=   77 fps=0.5 q=37.5 size=     768KiB time=00:00:02.50 bitrate=2516.7kbits/s speed=0.0161x elapsed=0:02:35.18    \nframe=   78 fps=0.5 q=38.8 size=     768KiB time=00:00:02.53 bitrate=2483.6kbits/s speed=0.0163x elapsed=0:02:35.70    \nframe=   78 fps=0.5 q=38.8 size=     768KiB time=00:00:02.53 bitrate=2483.6kbits/s speed=0.0162x elapsed=0:02:36.27    \nframe=   78 fps=0.5 q=38.8 size=     768KiB time=00:00:02.53 bitrate=2483.6kbits/s speed=0.0162x elapsed=0:02:36.82    \nframe=   79 fps=0.5 q=38.8 size=     768KiB time=00:00:02.56 bitrate=2451.4kbits/s speed=0.0163x elapsed=0:02:37.37    \nframe=   79 fps=0.5 q=38.8 size=     768KiB time=00:00:02.56 bitrate=2451.4kbits/s speed=0.0163x elapsed=0:02:37.89    \nframe=   80 fps=0.5 q=35.0 size=     768KiB time=00:00:02.60 bitrate=2419.9kbits/s speed=0.0164x elapsed=0:02:38.44    \nframe=   80 fps=0.5 q=35.0 size=     768KiB time=00:00:02.60 bitrate=2419.9kbits/s speed=0.0164x elapsed=0:02:39.00    \nframe=   80 fps=0.5 q=35.0 size=     768KiB time=00:00:02.60 bitrate=2419.9kbits/s speed=0.0163x elapsed=0:02:39.54    \nframe=   80 fps=0.5 q=35.0 size=     768KiB time=00:00:02.60 bitrate=2419.9kbits/s speed=0.0162x elapsed=0:02:40.07    \nframe=   80 fps=0.5 q=35.0 size=     768KiB time=00:00:02.60 bitrate=2419.9kbits/s speed=0.0162x elapsed=0:02:40.63    \nframe=   80 fps=0.5 q=35.0 size=     768KiB time=00:00:02.60 bitrate=2419.9kbits/s speed=0.0161x elapsed=0:02:41.17    \nframe=   81 fps=0.5 q=37.4 size=     768KiB time=00:00:02.63 bitrate=2389.3kbits/s speed=0.0163x elapsed=0:02:41.70    \nframe=   81 fps=0.5 q=37.4 size=     768KiB time=00:00:02.63 bitrate=2389.3kbits/s speed=0.0162x elapsed=0:02:42.28    \nframe=   81 fps=0.5 q=37.4 size=     768KiB time=00:00:02.63 bitrate=2389.3kbits/s speed=0.0162x elapsed=0:02:42.85    \nframe=   81 fps=0.5 q=37.4 size=     768KiB time=00:00:02.63 bitrate=2389.3kbits/s speed=0.0161x elapsed=0:02:43.46    \nframe=   81 fps=0.5 q=37.4 size=     768KiB time=00:00:02.63 bitrate=2389.3kbits/s speed=0.0161x elapsed=0:02:44.04    \nframe=   81 fps=0.5 q=37.4 size=     768KiB time=00:00:02.63 bitrate=2389.3kbits/s speed=0.016x elapsed=0:02:44.57    \nframe=   82 fps=0.5 q=38.6 size=     768KiB time=00:00:02.66 bitrate=2359.4kbits/s speed=0.0161x elapsed=0:02:45.15    \nframe=   82 fps=0.5 q=38.6 size=     768KiB time=00:00:02.66 bitrate=2359.4kbits/s speed=0.0161x elapsed=0:02:45.74    \nframe=   82 fps=0.5 q=38.6 size=     768KiB time=00:00:02.66 bitrate=2359.4kbits/s speed=0.016x elapsed=0:02:46.33    \nframe=   82 fps=0.5 q=38.6 size=     768KiB time=00:00:02.66 bitrate=2359.4kbits/s speed=0.016x elapsed=0:02:46.91    \nframe=   82 fps=0.5 q=38.6 size=     768KiB time=00:00:02.66 bitrate=2359.4kbits/s speed=0.0159x elapsed=0:02:47.43    \nframe=   83 fps=0.5 q=39.0 size=     768KiB time=00:00:02.70 bitrate=2330.3kbits/s speed=0.0161x elapsed=0:02:48.06    \nframe=   83 fps=0.5 q=39.0 size=     768KiB time=00:00:02.70 bitrate=2330.3kbits/s speed=0.016x elapsed=0:02:48.63    \nframe=   83 fps=0.5 q=39.0 size=     768KiB time=00:00:02.70 bitrate=2330.3kbits/s speed=0.016x elapsed=0:02:49.15    \nframe=   83 fps=0.5 q=39.0 size=     768KiB time=00:00:02.70 bitrate=2330.3kbits/s speed=0.0159x elapsed=0:02:49.69    \nframe=   83 fps=0.5 q=39.0 size=     768KiB time=00:00:02.70 bitrate=2330.3kbits/s speed=0.0159x elapsed=0:02:50.29    \nframe=   83 fps=0.5 q=39.0 size=     768KiB time=00:00:02.70 bitrate=2330.3kbits/s speed=0.0158x elapsed=0:02:50.88    \nframe=   83 fps=0.5 q=39.0 size=     768KiB time=00:00:02.70 bitrate=2330.3kbits/s speed=0.0157x elapsed=0:02:51.46    \nframe=   83 fps=0.5 q=39.0 size=     768KiB time=00:00:02.70 bitrate=2330.3kbits/s speed=0.0157x elapsed=0:02:52.04    \nframe=   84 fps=0.5 q=33.9 size=     768KiB time=00:00:02.73 bitrate=2301.9kbits/s speed=0.0158x elapsed=0:02:52.64    \nframe=   84 fps=0.5 q=33.9 size=     768KiB time=00:00:02.73 bitrate=2301.9kbits/s speed=0.0158x elapsed=0:02:53.17    \nframe=   84 fps=0.5 q=33.9 size=     768KiB time=00:00:02.73 bitrate=2301.9kbits/s speed=0.0157x elapsed=0:02:53.73    \nframe=   84 fps=0.5 q=33.9 size=     768KiB time=00:00:02.73 bitrate=2301.9kbits/s speed=0.0157x elapsed=0:02:54.29    \nframe=   84 fps=0.5 q=33.9 size=     768KiB time=00:00:02.73 bitrate=2301.9kbits/s speed=0.0156x elapsed=0:02:54.89    \nframe=   84 fps=0.5 q=33.9 size=     768KiB time=00:00:02.73 bitrate=2301.9kbits/s speed=0.0156x elapsed=0:02:55.43    \nframe=   84 fps=0.5 q=33.9 size=     768KiB time=00:00:02.73 bitrate=2301.9kbits/s speed=0.0155x elapsed=0:02:55.97    \nframe=   84 fps=0.5 q=33.9 size=     768KiB time=00:00:02.73 bitrate=2301.9kbits/s speed=0.0155x elapsed=0:02:56.52    \nframe=   84 fps=0.5 q=33.9 size=     768KiB time=00:00:02.73 bitrate=2301.9kbits/s speed=0.0154x elapsed=0:02:57.04    \nframe=   84 fps=0.5 q=33.9 size=     768KiB time=00:00:02.73 bitrate=2301.9kbits/s speed=0.0154x elapsed=0:02:57.58    \nframe=   84 fps=0.5 q=33.9 size=     768KiB time=00:00:02.73 bitrate=2301.9kbits/s speed=0.0153x elapsed=0:02:58.14    \nframe=   84 fps=0.5 q=33.9 size=     768KiB time=00:00:02.73 bitrate=2301.9kbits/s speed=0.0153x elapsed=0:02:58.67    \nframe=   84 fps=0.5 q=33.9 size=     768KiB time=00:00:02.73 bitrate=2301.9kbits/s speed=0.0153x elapsed=0:02:59.21    \nframe=   85 fps=0.5 q=35.4 size=    1024KiB time=00:00:02.76 bitrate=3032.2kbits/s speed=0.0154x elapsed=0:02:59.77    \nframe=   85 fps=0.5 q=35.4 size=    1024KiB time=00:00:02.76 bitrate=3032.2kbits/s speed=0.0153x elapsed=0:03:00.35    \nframe=   85 fps=0.5 q=35.4 size=    1024KiB time=00:00:02.76 bitrate=3032.2kbits/s speed=0.0153x elapsed=0:03:00.86    \nframe=   85 fps=0.5 q=35.4 size=    1024KiB time=00:00:02.76 bitrate=3032.2kbits/s speed=0.0153x elapsed=0:03:01.40    \nframe=   86 fps=0.5 q=38.5 size=    1024KiB time=00:00:02.80 bitrate=2996.1kbits/s speed=0.0154x elapsed=0:03:01.91    \nframe=   86 fps=0.5 q=38.5 size=    1024KiB time=00:00:02.80 bitrate=2996.1kbits/s speed=0.0153x elapsed=0:03:02.43    \nframe=   86 fps=0.5 q=38.5 size=    1024KiB time=00:00:02.80 bitrate=2996.1kbits/s speed=0.0153x elapsed=0:03:02.96    \nframe=   87 fps=0.5 q=39.1 size=    1024KiB time=00:00:02.83 bitrate=2960.8kbits/s speed=0.0154x elapsed=0:03:03.53    \nframe=   87 fps=0.5 q=39.1 size=    1024KiB time=00:00:02.83 bitrate=2960.8kbits/s speed=0.0154x elapsed=0:03:04.12    \nframe=   87 fps=0.5 q=39.1 size=    1024KiB time=00:00:02.83 bitrate=2960.8kbits/s speed=0.0153x elapsed=0:03:04.68    \nframe=   88 fps=0.5 q=39.0 size=    1024KiB time=00:00:02.83 bitrate=2960.8kbits/s speed=0.0153x elapsed=0:03:05.25    \nframe=   88 fps=0.5 q=39.0 size=    1024KiB time=00:00:02.86 bitrate=2926.4kbits/s speed=0.0154x elapsed=0:03:05.78    \nframe=   88 fps=0.5 q=39.0 size=    1024KiB time=00:00:02.86 bitrate=2926.4kbits/s speed=0.0154x elapsed=0:03:06.30    \nframe=   88 fps=0.5 q=39.0 size=    1024KiB time=00:00:02.86 bitrate=2926.4kbits/s speed=0.0153x elapsed=0:03:06.82    \nframe=   88 fps=0.5 q=39.0 size=    1024KiB time=00:00:02.86 bitrate=2926.4kbits/s speed=0.0153x elapsed=0:03:07.37    \nframe=   88 fps=0.5 q=39.0 size=    1024KiB time=00:00:02.86 bitrate=2926.4kbits/s speed=0.0153x elapsed=0:03:07.89    \nframe=   88 fps=0.5 q=39.0 size=    1024KiB time=00:00:02.86 bitrate=2926.4kbits/s speed=0.0152x elapsed=0:03:08.42    \nframe=   88 fps=0.5 q=39.0 size=    1024KiB time=00:00:02.86 bitrate=2926.4kbits/s speed=0.0152x elapsed=0:03:08.95    \nframe=   88 fps=0.5 q=39.0 size=    1024KiB time=00:00:02.86 bitrate=2926.4kbits/s speed=0.0151x elapsed=0:03:09.48    \nframe=   89 fps=0.5 q=33.5 size=    1024KiB time=00:00:02.90 bitrate=2892.7kbits/s speed=0.0153x elapsed=0:03:10.00    \nframe=   89 fps=0.5 q=33.5 size=    1024KiB time=00:00:02.90 bitrate=2892.7kbits/s speed=0.0152x elapsed=0:03:10.51    \nframe=   89 fps=0.5 q=33.5 size=    1024KiB time=00:00:02.90 bitrate=2892.7kbits/s speed=0.0152x elapsed=0:03:11.03    \nframe=   89 fps=0.5 q=33.5 size=    1024KiB time=00:00:02.90 bitrate=2892.7kbits/s speed=0.0151x elapsed=0:03:11.56    \nframe=   89 fps=0.5 q=33.5 size=    1024KiB time=00:00:02.90 bitrate=2892.7kbits/s speed=0.0151x elapsed=0:03:12.08    \nframe=   89 fps=0.5 q=33.5 size=    1024KiB time=00:00:02.90 bitrate=2892.7kbits/s speed=0.0151x elapsed=0:03:12.60    \nframe=   89 fps=0.5 q=33.5 size=    1024KiB time=00:00:02.90 bitrate=2892.7kbits/s speed=0.015x elapsed=0:03:13.13    \nframe=   90 fps=0.5 q=37.9 size=    1024KiB time=00:00:02.93 bitrate=2859.9kbits/s speed=0.0151x elapsed=0:03:13.66    \nframe=   90 fps=0.5 q=37.9 size=    1024KiB time=00:00:02.93 bitrate=2859.9kbits/s speed=0.0151x elapsed=0:03:14.17    \nframe=   90 fps=0.5 q=37.9 size=    1024KiB time=00:00:02.93 bitrate=2859.9kbits/s speed=0.0151x elapsed=0:03:14.71    \nframe=   90 fps=0.5 q=37.9 size=    1024KiB time=00:00:02.93 bitrate=2859.9kbits/s speed=0.015x elapsed=0:03:15.25    \nframe=   90 fps=0.5 q=37.9 size=    1024KiB time=00:00:02.93 bitrate=2859.9kbits/s speed=0.015x elapsed=0:03:15.78    \nframe=   90 fps=0.5 q=37.9 size=    1024KiB time=00:00:02.93 bitrate=2859.9kbits/s speed=0.0149x elapsed=0:03:16.31    \nframe=   90 fps=0.5 q=37.9 size=    1024KiB time=00:00:02.93 bitrate=2859.9kbits/s speed=0.0149x elapsed=0:03:16.84    \nframe=   90 fps=0.5 q=37.9 size=    1024KiB time=00:00:02.93 bitrate=2859.9kbits/s speed=0.0149x elapsed=0:03:17.37    \nframe=   91 fps=0.5 q=39.1 size=    1024KiB time=00:00:02.96 bitrate=2827.7kbits/s speed=0.015x elapsed=0:03:17.90    \nframe=   93 fps=0.5 q=38.9 size=    1024KiB time=00:00:03.03 bitrate=2765.6kbits/s speed=0.0153x elapsed=0:03:18.42    \nframe=   93 fps=0.5 q=38.9 size=    1024KiB time=00:00:03.03 bitrate=2765.6kbits/s speed=0.0152x elapsed=0:03:18.95    \nframe=   93 fps=0.5 q=38.9 size=    1024KiB time=00:00:03.03 bitrate=2765.6kbits/s speed=0.0152x elapsed=0:03:19.47    \nframe=   93 fps=0.5 q=38.9 size=    1024KiB time=00:00:03.03 bitrate=2765.6kbits/s speed=0.0152x elapsed=0:03:19.98    \nframe=   93 fps=0.5 q=38.9 size=    1024KiB time=00:00:03.03 bitrate=2765.6kbits/s speed=0.0151x elapsed=0:03:20.50    \nframe=   93 fps=0.5 q=38.9 size=    1024KiB time=00:00:03.03 bitrate=2765.6kbits/s speed=0.0151x elapsed=0:03:21.01    \nframe=   93 fps=0.5 q=38.9 size=    1024KiB time=00:00:03.03 bitrate=2765.6kbits/s speed=0.0151x elapsed=0:03:21.52    \nframe=   93 fps=0.5 q=38.9 size=    1024KiB time=00:00:03.03 bitrate=2765.6kbits/s speed=0.015x elapsed=0:03:22.04    \nframe=   93 fps=0.5 q=38.9 size=    1024KiB time=00:00:03.03 bitrate=2765.6kbits/s speed=0.015x elapsed=0:03:22.56    \nframe=   93 fps=0.5 q=38.9 size=    1024KiB time=00:00:03.03 bitrate=2765.6kbits/s speed=0.0149x elapsed=0:03:23.10    \nframe=   93 fps=0.5 q=38.9 size=    1024KiB time=00:00:03.03 bitrate=2765.6kbits/s speed=0.0149x elapsed=0:03:23.62    \nframe=   93 fps=0.5 q=38.9 size=    1024KiB time=00:00:03.03 bitrate=2765.6kbits/s speed=0.0149x elapsed=0:03:24.15    \nframe=   94 fps=0.5 q=35.3 size=    1024KiB time=00:00:03.06 bitrate=2735.5kbits/s speed=0.015x elapsed=0:03:24.67    \nframe=   94 fps=0.5 q=35.3 size=    1024KiB time=00:00:03.06 bitrate=2735.5kbits/s speed=0.0149x elapsed=0:03:25.20    \nframe=   94 fps=0.5 q=35.3 size=    1024KiB time=00:00:03.06 bitrate=2735.5kbits/s speed=0.0149x elapsed=0:03:25.77    \nframe=   94 fps=0.5 q=35.3 size=    1024KiB time=00:00:03.06 bitrate=2735.5kbits/s speed=0.0149x elapsed=0:03:26.34    \nframe=   94 fps=0.5 q=35.3 size=    1024KiB time=00:00:03.06 bitrate=2735.5kbits/s speed=0.0148x elapsed=0:03:26.88    \nframe=   94 fps=0.5 q=35.3 size=    1024KiB time=00:00:03.06 bitrate=2735.5kbits/s speed=0.0148x elapsed=0:03:27.39    \nframe=   95 fps=0.5 q=37.4 size=    1024KiB time=00:00:03.10 bitrate=2706.1kbits/s speed=0.0149x elapsed=0:03:27.91    \nframe=   95 fps=0.5 q=37.4 size=    1024KiB time=00:00:03.10 bitrate=2706.1kbits/s speed=0.0149x elapsed=0:03:28.42    \nframe=   95 fps=0.5 q=37.4 size=    1024KiB time=00:00:03.10 bitrate=2706.1kbits/s speed=0.0148x elapsed=0:03:28.93    \nframe=   95 fps=0.5 q=37.4 size=    1024KiB time=00:00:03.10 bitrate=2706.1kbits/s speed=0.0148x elapsed=0:03:29.46    \nframe=   95 fps=0.5 q=37.4 size=    1024KiB time=00:00:03.10 bitrate=2706.1kbits/s speed=0.0148x elapsed=0:03:29.97    \nframe=   96 fps=0.5 q=39.2 size=    1024KiB time=00:00:03.13 bitrate=2677.3kbits/s speed=0.0149x elapsed=0:03:30.50    \nframe=   96 fps=0.5 q=39.2 size=    1024KiB time=00:00:03.13 bitrate=2677.3kbits/s speed=0.0148x elapsed=0:03:31.04    \nframe=   98 fps=0.5 q=35.0 size=    1024KiB time=00:00:03.20 bitrate=2621.6kbits/s speed=0.0151x elapsed=0:03:31.59    \nframe=   98 fps=0.5 q=35.0 size=    1024KiB time=00:00:03.20 bitrate=2621.6kbits/s speed=0.0151x elapsed=0:03:32.12    \nframe=   98 fps=0.5 q=35.0 size=    1024KiB time=00:00:03.20 bitrate=2621.6kbits/s speed=0.015x elapsed=0:03:32.64    \nframe=   98 fps=0.5 q=35.0 size=    1024KiB time=00:00:03.20 bitrate=2621.6kbits/s speed=0.015x elapsed=0:03:33.16    \nframe=   99 fps=0.5 q=37.7 size=    1024KiB time=00:00:03.23 bitrate=2594.5kbits/s speed=0.0151x elapsed=0:03:33.68    \nframe=   99 fps=0.5 q=37.7 size=    1024KiB time=00:00:03.23 bitrate=2594.5kbits/s speed=0.0151x elapsed=0:03:34.20    \nframe=   99 fps=0.5 q=37.7 size=    1024KiB time=00:00:03.23 bitrate=2594.5kbits/s speed=0.0151x elapsed=0:03:34.73    \nframe=  100 fps=0.5 q=39.6 size=    1024KiB time=00:00:03.26 bitrate=2568.0kbits/s speed=0.0152x elapsed=0:03:35.25    \nframe=  100 fps=0.5 q=39.6 size=    1024KiB time=00:00:03.26 bitrate=2568.0kbits/s speed=0.0151x elapsed=0:03:35.79    \nframe=  100 fps=0.5 q=39.6 size=    1024KiB time=00:00:03.26 bitrate=2568.0kbits/s speed=0.0151x elapsed=0:03:36.32    \nframe=  100 fps=0.5 q=39.6 size=    1024KiB time=00:00:03.26 bitrate=2568.0kbits/s speed=0.0151x elapsed=0:03:36.82    \nframe=  100 fps=0.5 q=39.6 size=    1024KiB time=00:00:03.26 bitrate=2568.0kbits/s speed=0.015x elapsed=0:03:37.34    \nframe=  100 fps=0.5 q=39.6 size=    1024KiB time=00:00:03.26 bitrate=2568.0kbits/s speed=0.015x elapsed=0:03:37.87    \nframe=  101 fps=0.5 q=35.2 size=    1024KiB time=00:00:03.30 bitrate=2542.1kbits/s speed=0.0151x elapsed=0:03:38.40    \nframe=  101 fps=0.5 q=35.2 size=    1024KiB time=00:00:03.30 bitrate=2542.1kbits/s speed=0.0151x elapsed=0:03:38.93    \nframe=  101 fps=0.5 q=35.2 size=    1024KiB time=00:00:03.30 bitrate=2542.1kbits/s speed=0.015x elapsed=0:03:39.45    \nframe=  101 fps=0.5 q=35.2 size=    1024KiB time=00:00:03.30 bitrate=2542.1kbits/s speed=0.015x elapsed=0:03:39.98    \nframe=  101 fps=0.5 q=35.2 size=    1024KiB time=00:00:03.30 bitrate=2542.1kbits/s speed=0.015x elapsed=0:03:40.52    \nframe=  101 fps=0.5 q=35.2 size=    1024KiB time=00:00:03.30 bitrate=2542.1kbits/s speed=0.0149x elapsed=0:03:41.04    \nframe=  102 fps=0.5 q=37.6 size=    1024KiB time=00:00:03.33 bitrate=2516.7kbits/s speed=0.015x elapsed=0:03:41.56    \nframe=  102 fps=0.5 q=37.6 size=    1024KiB time=00:00:03.33 bitrate=2516.7kbits/s speed=0.015x elapsed=0:03:42.07    \nframe=  103 fps=0.5 q=39.3 size=    1280KiB time=00:00:03.36 bitrate=3114.7kbits/s speed=0.0151x elapsed=0:03:42.59    \nframe=  104 fps=0.5 q=39.8 size=    1280KiB time=00:00:03.40 bitrate=3084.2kbits/s speed=0.0152x elapsed=0:03:43.11    \nframe=  104 fps=0.5 q=39.8 size=    1280KiB time=00:00:03.40 bitrate=3084.2kbits/s speed=0.0152x elapsed=0:03:43.63    \nframe=  104 fps=0.5 q=39.8 size=    1280KiB time=00:00:03.40 bitrate=3084.2kbits/s speed=0.0152x elapsed=0:03:44.18    \nframe=  104 fps=0.5 q=39.8 size=    1280KiB time=00:00:03.40 bitrate=3084.2kbits/s speed=0.0151x elapsed=0:03:44.71    \nframe=  104 fps=0.5 q=39.8 size=    1280KiB time=00:00:03.40 bitrate=3084.2kbits/s speed=0.0151x elapsed=0:03:45.28    \nframe=  104 fps=0.5 q=39.8 size=    1280KiB time=00:00:03.40 bitrate=3084.2kbits/s speed=0.0151x elapsed=0:03:45.86    \nframe=  104 fps=0.5 q=39.8 size=    1280KiB time=00:00:03.40 bitrate=3084.2kbits/s speed=0.015x elapsed=0:03:46.39    \nframe=  104 fps=0.5 q=39.8 size=    1280KiB time=00:00:03.40 bitrate=3084.2kbits/s speed=0.015x elapsed=0:03:46.92    \nframe=  105 fps=0.5 q=36.4 size=    1280KiB time=00:00:03.43 bitrate=3054.2kbits/s speed=0.0151x elapsed=0:03:47.43    \nframe=  105 fps=0.5 q=36.4 size=    1280KiB time=00:00:03.43 bitrate=3054.2kbits/s speed=0.0151x elapsed=0:03:47.95    \nframe=  105 fps=0.5 q=36.4 size=    1280KiB time=00:00:03.43 bitrate=3054.2kbits/s speed=0.015x elapsed=0:03:48.48    \nframe=  106 fps=0.5 q=38.0 size=    1280KiB time=00:00:03.46 bitrate=3024.8kbits/s speed=0.0151x elapsed=0:03:48.99    \nframe=  106 fps=0.5 q=38.0 size=    1280KiB time=00:00:03.46 bitrate=3024.8kbits/s speed=0.0151x elapsed=0:03:49.52    \nframe=  108 fps=0.5 q=40.5 size=    1280KiB time=00:00:03.53 bitrate=2967.8kbits/s speed=0.0154x elapsed=0:03:50.03    \nframe=  108 fps=0.5 q=40.5 size=    1280KiB time=00:00:03.53 bitrate=2967.8kbits/s speed=0.0153x elapsed=0:03:50.55    \nframe=  109 fps=0.5 q=35.8 size=    1280KiB time=00:00:03.56 bitrate=2940.0kbits/s speed=0.0154x elapsed=0:03:51.07    \nframe=  109 fps=0.5 q=35.8 size=    1280KiB time=00:00:03.56 bitrate=2940.0kbits/s speed=0.0154x elapsed=0:03:51.58    \nframe=  110 fps=0.5 q=38.6 size=    1280KiB time=00:00:03.60 bitrate=2912.8kbits/s speed=0.0155x elapsed=0:03:52.10    \nframe=  110 fps=0.5 q=38.6 size=    1280KiB time=00:00:03.60 bitrate=2912.8kbits/s speed=0.0155x elapsed=0:03:52.61    \nframe=  111 fps=0.5 q=39.6 size=    1280KiB time=00:00:03.63 bitrate=2886.1kbits/s speed=0.0156x elapsed=0:03:53.13    \nframe=  111 fps=0.5 q=39.6 size=    1280KiB time=00:00:03.63 bitrate=2886.1kbits/s speed=0.0156x elapsed=0:03:53.64    \nframe=  111 fps=0.5 q=39.6 size=    1280KiB time=00:00:03.63 bitrate=2886.1kbits/s speed=0.0155x elapsed=0:03:54.15    \nframe=  111 fps=0.5 q=39.6 size=    1280KiB time=00:00:03.63 bitrate=2886.1kbits/s speed=0.0155x elapsed=0:03:54.69    \nframe=  112 fps=0.5 q=35.7 size=    1280KiB time=00:00:03.66 bitrate=2859.8kbits/s speed=0.0156x elapsed=0:03:55.28    \nframe=  112 fps=0.5 q=35.7 size=    1280KiB time=00:00:03.66 bitrate=2859.8kbits/s speed=0.0155x elapsed=0:03:55.81    \nframe=  112 fps=0.5 q=35.7 size=    1280KiB time=00:00:03.66 bitrate=2859.8kbits/s speed=0.0155x elapsed=0:03:56.35    \nframe=  112 fps=0.5 q=35.7 size=    1280KiB time=00:00:03.66 bitrate=2859.8kbits/s speed=0.0155x elapsed=0:03:56.87    \nframe=  112 fps=0.5 q=35.7 size=    1280KiB time=00:00:03.66 bitrate=2859.8kbits/s speed=0.0154x elapsed=0:03:57.40    \nframe=  112 fps=0.5 q=35.7 size=    1280KiB time=00:00:03.66 bitrate=2859.8kbits/s speed=0.0154x elapsed=0:03:57.94    \nframe=  112 fps=0.5 q=35.7 size=    1280KiB time=00:00:03.66 bitrate=2859.8kbits/s speed=0.0154x elapsed=0:03:58.47    \nframe=  112 fps=0.5 q=35.7 size=    1280KiB time=00:00:03.66 bitrate=2859.8kbits/s speed=0.0153x elapsed=0:03:58.98    \nframe=  112 fps=0.5 q=35.7 size=    1280KiB time=00:00:03.66 bitrate=2859.8kbits/s speed=0.0153x elapsed=0:03:59.51    \nframe=  112 fps=0.5 q=35.7 size=    1280KiB time=00:00:03.66 bitrate=2859.8kbits/s speed=0.0153x elapsed=0:04:00.03    \nframe=  113 fps=0.5 q=37.7 size=    1280KiB time=00:00:03.70 bitrate=2834.1kbits/s speed=0.0154x elapsed=0:04:00.57    \nframe=  113 fps=0.5 q=37.7 size=    1280KiB time=00:00:03.70 bitrate=2834.1kbits/s speed=0.0153x elapsed=0:04:01.11    \nframe=  113 fps=0.5 q=37.7 size=    1280KiB time=00:00:03.70 bitrate=2834.1kbits/s speed=0.0153x elapsed=0:04:01.65    \nframe=  113 fps=0.5 q=37.7 size=    1280KiB time=00:00:03.70 bitrate=2834.1kbits/s speed=0.0153x elapsed=0:04:02.16    \nframe=  113 fps=0.5 q=37.7 size=    1280KiB time=00:00:03.70 bitrate=2834.1kbits/s speed=0.0152x elapsed=0:04:02.68    \nframe=  114 fps=0.5 q=39.5 size=    1280KiB time=00:00:03.73 bitrate=2808.8kbits/s speed=0.0154x elapsed=0:04:03.20    \nframe=  115 fps=0.5 q=39.7 size=    1280KiB time=00:00:03.76 bitrate=2783.9kbits/s speed=0.0155x elapsed=0:04:03.72    \nframe=  115 fps=0.5 q=39.7 size=    1280KiB time=00:00:03.76 bitrate=2783.9kbits/s speed=0.0154x elapsed=0:04:04.26    \nframe=  115 fps=0.5 q=39.7 size=    1280KiB time=00:00:03.76 bitrate=2783.9kbits/s speed=0.0154x elapsed=0:04:04.78    \nframe=  115 fps=0.5 q=39.7 size=    1280KiB time=00:00:03.76 bitrate=2783.9kbits/s speed=0.0154x elapsed=0:04:05.30    \nframe=  115 fps=0.5 q=39.7 size=    1280KiB time=00:00:03.76 bitrate=2783.9kbits/s speed=0.0153x elapsed=0:04:05.81    \nframe=  116 fps=0.5 q=35.2 size=    1280KiB time=00:00:03.80 bitrate=2759.5kbits/s speed=0.0154x elapsed=0:04:06.33    \nframe=  116 fps=0.5 q=35.2 size=    1280KiB time=00:00:03.80 bitrate=2759.5kbits/s speed=0.0154x elapsed=0:04:06.84    \nframe=  116 fps=0.5 q=35.2 size=    1280KiB time=00:00:03.80 bitrate=2759.5kbits/s speed=0.0154x elapsed=0:04:07.37    \nframe=  116 fps=0.5 q=35.2 size=    1280KiB time=00:00:03.80 bitrate=2759.5kbits/s speed=0.0153x elapsed=0:04:07.89    \nframe=  116 fps=0.5 q=35.2 size=    1280KiB time=00:00:03.80 bitrate=2759.5kbits/s speed=0.0153x elapsed=0:04:08.44    \nframe=  116 fps=0.5 q=35.2 size=    1280KiB time=00:00:03.80 bitrate=2759.5kbits/s speed=0.0153x elapsed=0:04:08.95    \nframe=  116 fps=0.5 q=35.2 size=    1280KiB time=00:00:03.80 bitrate=2759.5kbits/s speed=0.0152x elapsed=0:04:09.49    \nframe=  117 fps=0.5 q=38.5 size=    1280KiB time=00:00:03.83 bitrate=2735.5kbits/s speed=0.0153x elapsed=0:04:10.03    \nframe=  117 fps=0.5 q=38.5 size=    1280KiB time=00:00:03.83 bitrate=2735.5kbits/s speed=0.0153x elapsed=0:04:10.54    \nframe=  117 fps=0.5 q=38.5 size=    1280KiB time=00:00:03.83 bitrate=2735.5kbits/s speed=0.0153x elapsed=0:04:11.06    \nframe=  117 fps=0.5 q=38.5 size=    1280KiB time=00:00:03.83 bitrate=2735.5kbits/s speed=0.0152x elapsed=0:04:11.57    \nframe=  118 fps=0.5 q=39.4 size=    1280KiB time=00:00:03.86 bitrate=2711.9kbits/s speed=0.0153x elapsed=0:04:12.10    \nframe=  118 fps=0.5 q=39.4 size=    1280KiB time=00:00:03.86 bitrate=2711.9kbits/s speed=0.0153x elapsed=0:04:12.62    \nframe=  119 fps=0.5 q=35.5 size=    1280KiB time=00:00:03.90 bitrate=2688.7kbits/s speed=0.0154x elapsed=0:04:13.14    \nframe=  119 fps=0.5 q=35.5 size=    1280KiB time=00:00:03.90 bitrate=2688.7kbits/s speed=0.0154x elapsed=0:04:13.66    \nframe=  119 fps=0.5 q=35.5 size=    1280KiB time=00:00:03.90 bitrate=2688.7kbits/s speed=0.0153x elapsed=0:04:14.17    \nframe=  119 fps=0.5 q=35.5 size=    1280KiB time=00:00:03.90 bitrate=2688.7kbits/s speed=0.0153x elapsed=0:04:14.73    \nframe=  119 fps=0.5 q=35.5 size=    1280KiB time=00:00:03.90 bitrate=2688.7kbits/s speed=0.0153x elapsed=0:04:15.25    \nframe=  119 fps=0.5 q=35.5 size=    1280KiB time=00:00:03.90 bitrate=2688.7kbits/s speed=0.0152x elapsed=0:04:15.76    \nframe=  119 fps=0.5 q=35.5 size=    1280KiB time=00:00:03.90 bitrate=2688.7kbits/s speed=0.0152x elapsed=0:04:16.28    \nframe=  120 fps=0.5 q=37.9 size=    1280KiB time=00:00:03.93 bitrate=2666.0kbits/s speed=0.0153x elapsed=0:04:16.80    \nframe=  121 fps=0.5 q=39.7 size=    1280KiB time=00:00:03.96 bitrate=2643.6kbits/s speed=0.0154x elapsed=0:04:17.31    \nframe=  122 fps=0.5 q=39.6 size=    1280KiB time=00:00:04.00 bitrate=2621.5kbits/s speed=0.0155x elapsed=0:04:17.83    \nframe=  122 fps=0.5 q=39.6 size=    1280KiB time=00:00:04.00 bitrate=2621.5kbits/s speed=0.0155x elapsed=0:04:18.34    \nframe=  122 fps=0.5 q=39.6 size=    1280KiB time=00:00:04.00 bitrate=2621.5kbits/s speed=0.0155x elapsed=0:04:18.86    \nframe=  122 fps=0.5 q=39.6 size=    1280KiB time=00:00:04.00 bitrate=2621.5kbits/s speed=0.0154x elapsed=0:04:19.38    \nframe=  122 fps=0.5 q=39.6 size=    1280KiB time=00:00:04.00 bitrate=2621.5kbits/s speed=0.0154x elapsed=0:04:19.91    \nframe=  122 fps=0.5 q=39.6 size=    1280KiB time=00:00:04.00 bitrate=2621.5kbits/s speed=0.0154x elapsed=0:04:20.42    \nframe=  122 fps=0.5 q=39.6 size=    1280KiB time=00:00:04.00 bitrate=2621.5kbits/s speed=0.0153x elapsed=0:04:20.95    \nframe=  123 fps=0.5 q=34.7 size=    1280KiB time=00:00:04.03 bitrate=2599.9kbits/s speed=0.0154x elapsed=0:04:21.47    \nframe=  123 fps=0.5 q=34.7 size=    1280KiB time=00:00:04.03 bitrate=2599.9kbits/s speed=0.0154x elapsed=0:04:21.98    \nframe=  123 fps=0.5 q=34.7 size=    1280KiB time=00:00:04.03 bitrate=2599.9kbits/s speed=0.0154x elapsed=0:04:22.50    \nframe=  123 fps=0.5 q=34.7 size=    1280KiB time=00:00:04.03 bitrate=2599.9kbits/s speed=0.0153x elapsed=0:04:23.02    \nframe=  123 fps=0.5 q=34.7 size=    1280KiB time=00:00:04.03 bitrate=2599.9kbits/s speed=0.0153x elapsed=0:04:23.54    \nframe=  123 fps=0.5 q=34.7 size=    1280KiB time=00:00:04.03 bitrate=2599.9kbits/s speed=0.0153x elapsed=0:04:24.09    \nframe=  123 fps=0.5 q=34.7 size=    1280KiB time=00:00:04.03 bitrate=2599.9kbits/s speed=0.0152x elapsed=0:04:24.65    \nframe=  124 fps=0.5 q=37.7 size=    1536KiB time=00:00:04.06 bitrate=3094.2kbits/s speed=0.0153x elapsed=0:04:25.16    \nframe=  124 fps=0.5 q=37.7 size=    1536KiB time=00:00:04.06 bitrate=3094.2kbits/s speed=0.0153x elapsed=0:04:25.69    \nframe=  124 fps=0.5 q=37.7 size=    1536KiB time=00:00:04.06 bitrate=3094.2kbits/s speed=0.0153x elapsed=0:04:26.25    \nframe=  124 fps=0.5 q=37.7 size=    1536KiB time=00:00:04.06 bitrate=3094.2kbits/s speed=0.0152x elapsed=0:04:26.80    \nframe=  126 fps=0.5 q=40.2 size=    1536KiB time=00:00:04.13 bitrate=3044.3kbits/s speed=0.0155x elapsed=0:04:27.31    \nframe=  126 fps=0.5 q=40.2 size=    1536KiB time=00:00:04.13 bitrate=3044.3kbits/s speed=0.0154x elapsed=0:04:27.86    \nframe=  126 fps=0.5 q=40.2 size=    1536KiB time=00:00:04.13 bitrate=3044.3kbits/s speed=0.0154x elapsed=0:04:28.39    \nframe=  127 fps=0.5 q=40.1 size=    1536KiB time=00:00:04.16 bitrate=3020.0kbits/s speed=0.0155x elapsed=0:04:28.90    \nframe=  127 fps=0.5 q=40.1 size=    1536KiB time=00:00:04.16 bitrate=3020.0kbits/s speed=0.0155x elapsed=0:04:29.44    \nframe=  127 fps=0.5 q=40.1 size=    1536KiB time=00:00:04.16 bitrate=3020.0kbits/s speed=0.0154x elapsed=0:04:29.96    \nframe=  128 fps=0.5 q=34.7 size=    1536KiB time=00:00:04.16 bitrate=3020.0kbits/s speed=0.0154x elapsed=0:04:30.48    \nframe=  128 fps=0.5 q=34.7 size=    1536KiB time=00:00:04.20 bitrate=2996.0kbits/s speed=0.0155x elapsed=0:04:31.00    \nframe=  128 fps=0.5 q=34.7 size=    1536KiB time=00:00:04.20 bitrate=2996.0kbits/s speed=0.0155x elapsed=0:04:31.52    \nframe=  128 fps=0.5 q=34.7 size=    1536KiB time=00:00:04.20 bitrate=2996.0kbits/s speed=0.0154x elapsed=0:04:32.07    \nframe=  128 fps=0.5 q=34.7 size=    1536KiB time=00:00:04.20 bitrate=2996.0kbits/s speed=0.0154x elapsed=0:04:32.59    \nframe=  128 fps=0.5 q=34.7 size=    1536KiB time=00:00:04.20 bitrate=2996.0kbits/s speed=0.0154x elapsed=0:04:33.12    \nframe=  128 fps=0.5 q=34.7 size=    1536KiB time=00:00:04.20 bitrate=2996.0kbits/s speed=0.0153x elapsed=0:04:33.65    \nframe=  129 fps=0.5 q=36.8 size=    1536KiB time=00:00:04.23 bitrate=2972.4kbits/s speed=0.0154x elapsed=0:04:34.17    \nframe=  129 fps=0.5 q=36.8 size=    1536KiB time=00:00:04.23 bitrate=2972.4kbits/s speed=0.0154x elapsed=0:04:34.69    \nframe=  129 fps=0.5 q=36.8 size=    1536KiB time=00:00:04.23 bitrate=2972.4kbits/s speed=0.0154x elapsed=0:04:35.21    \nframe=  130 fps=0.5 q=39.7 size=    1536KiB time=00:00:04.26 bitrate=2949.2kbits/s speed=0.0155x elapsed=0:04:35.74    \nframe=  130 fps=0.5 q=39.7 size=    1536KiB time=00:00:04.26 bitrate=2949.2kbits/s speed=0.0154x elapsed=0:04:36.28    \nframe=  131 fps=0.5 q=39.7 size=    1536KiB time=00:00:04.30 bitrate=2926.3kbits/s speed=0.0155x elapsed=0:04:36.81    \nframe=  131 fps=0.5 q=39.7 size=    1536KiB time=00:00:04.30 bitrate=2926.3kbits/s speed=0.0155x elapsed=0:04:37.39    \nframe=  131 fps=0.5 q=39.7 size=    1536KiB time=00:00:04.30 bitrate=2926.3kbits/s speed=0.0155x elapsed=0:04:37.96    \nframe=  131 fps=0.5 q=39.7 size=    1536KiB time=00:00:04.30 bitrate=2926.3kbits/s speed=0.0154x elapsed=0:04:38.48    \nframe=  132 fps=0.5 q=39.6 size=    1536KiB time=00:00:04.33 bitrate=2903.8kbits/s speed=0.0155x elapsed=0:04:39.00    \nframe=  132 fps=0.5 q=39.6 size=    1536KiB time=00:00:04.33 bitrate=2903.8kbits/s speed=0.0155x elapsed=0:04:39.52    \nframe=  132 fps=0.5 q=39.6 size=    1536KiB time=00:00:04.33 bitrate=2903.8kbits/s speed=0.0155x elapsed=0:04:40.04    \nframe=  133 fps=0.5 q=35.2 size=    1536KiB time=00:00:04.36 bitrate=2881.7kbits/s speed=0.0156x elapsed=0:04:40.57    \nframe=  133 fps=0.5 q=35.2 size=    1536KiB time=00:00:04.36 bitrate=2881.7kbits/s speed=0.0155x elapsed=0:04:41.08    \nframe=  133 fps=0.5 q=35.2 size=    1536KiB time=00:00:04.36 bitrate=2881.7kbits/s speed=0.0155x elapsed=0:04:41.59    \nframe=  134 fps=0.5 q=39.5 size=    1536KiB time=00:00:04.40 bitrate=2859.8kbits/s speed=0.0156x elapsed=0:04:42.11    \nframe=  134 fps=0.5 q=39.5 size=    1536KiB time=00:00:04.40 bitrate=2859.8kbits/s speed=0.0156x elapsed=0:04:42.63    \nframe=  136 fps=0.5 q=40.5 size=    1536KiB time=00:00:04.46 bitrate=2817.1kbits/s speed=0.0158x elapsed=0:04:43.14    \nframe=  137 fps=0.5 q=40.5 size=    1536KiB time=00:00:04.50 bitrate=2796.3kbits/s speed=0.0159x elapsed=0:04:43.65    \nframe=  137 fps=0.5 q=40.5 size=    1536KiB time=00:00:04.50 bitrate=2796.3kbits/s speed=0.0158x elapsed=0:04:44.18    \nframe=  137 fps=0.5 q=40.5 size=    1536KiB time=00:00:04.50 bitrate=2796.3kbits/s speed=0.0158x elapsed=0:04:44.68    \nframe=  138 fps=0.5 q=34.9 size=    1536KiB time=00:00:04.53 bitrate=2775.7kbits/s speed=0.0159x elapsed=0:04:45.21    \nframe=  138 fps=0.5 q=34.9 size=    1536KiB time=00:00:04.53 bitrate=2775.7kbits/s speed=0.0159x elapsed=0:04:45.71    \nframe=  138 fps=0.5 q=34.9 size=    1536KiB time=00:00:04.53 bitrate=2775.7kbits/s speed=0.0158x elapsed=0:04:46.24    \nframe=  139 fps=0.5 q=37.7 size=    1536KiB time=00:00:04.56 bitrate=2755.5kbits/s speed=0.0159x elapsed=0:04:46.75    \nframe=  140 fps=0.5 q=39.8 size=    1536KiB time=00:00:04.60 bitrate=2735.5kbits/s speed=0.016x elapsed=0:04:47.27    \nframe=  141 fps=0.5 q=40.1 size=    1536KiB time=00:00:04.63 bitrate=2715.8kbits/s speed=0.0161x elapsed=0:04:47.78    \nframe=  141 fps=0.5 q=40.1 size=    1536KiB time=00:00:04.63 bitrate=2715.8kbits/s speed=0.0161x elapsed=0:04:48.30    \nframe=  142 fps=0.5 q=35.1 size=    1536KiB time=00:00:04.66 bitrate=2696.4kbits/s speed=0.0162x elapsed=0:04:48.81    \nframe=  142 fps=0.5 q=35.1 size=    1536KiB time=00:00:04.66 bitrate=2696.4kbits/s speed=0.0161x elapsed=0:04:49.33    \nframe=  143 fps=0.5 q=37.1 size=    1536KiB time=00:00:04.70 bitrate=2677.3kbits/s speed=0.0162x elapsed=0:04:49.84    \nframe=  143 fps=0.5 q=37.1 size=    1536KiB time=00:00:04.70 bitrate=2677.3kbits/s speed=0.0162x elapsed=0:04:50.36    \nframe=  144 fps=0.5 q=40.1 size=    1792KiB time=00:00:04.73 bitrate=3101.5kbits/s speed=0.0163x elapsed=0:04:50.87    \nframe=  145 fps=0.5 q=40.1 size=    1792KiB time=00:00:04.76 bitrate=3079.8kbits/s speed=0.0164x elapsed=0:04:51.39    \nframe=  145 fps=0.5 q=40.1 size=    1792KiB time=00:00:04.76 bitrate=3079.8kbits/s speed=0.0163x elapsed=0:04:51.91    \nframe=  146 fps=0.5 q=36.6 size=    1792KiB time=00:00:04.80 bitrate=3058.4kbits/s speed=0.0164x elapsed=0:04:52.41    \nframe=  146 fps=0.5 q=36.6 size=    1792KiB time=00:00:04.80 bitrate=3058.4kbits/s speed=0.0164x elapsed=0:04:52.94    \nframe=  146 fps=0.5 q=36.6 size=    1792KiB time=00:00:04.80 bitrate=3058.4kbits/s speed=0.0164x elapsed=0:04:53.45    \nframe=  146 fps=0.5 q=36.6 size=    1792KiB time=00:00:04.80 bitrate=3058.4kbits/s speed=0.0163x elapsed=0:04:53.97    \nframe=  147 fps=0.5 q=38.4 size=    1792KiB time=00:00:04.83 bitrate=3037.3kbits/s speed=0.0164x elapsed=0:04:54.48    \nframe=  147 fps=0.5 q=38.4 size=    1792KiB time=00:00:04.83 bitrate=3037.3kbits/s speed=0.0164x elapsed=0:04:55.01    \nframe=  147 fps=0.5 q=38.4 size=    1792KiB time=00:00:04.83 bitrate=3037.3kbits/s speed=0.0164x elapsed=0:04:55.59    \nframe=  147 fps=0.5 q=38.4 size=    1792KiB time=00:00:04.83 bitrate=3037.3kbits/s speed=0.0163x elapsed=0:04:56.14    \nframe=  147 fps=0.5 q=38.4 size=    1792KiB time=00:00:04.83 bitrate=3037.3kbits/s speed=0.0163x elapsed=0:04:56.68    \nframe=  147 fps=0.5 q=38.4 size=    1792KiB time=00:00:04.83 bitrate=3037.3kbits/s speed=0.0163x elapsed=0:04:57.19    \nframe=  147 fps=0.5 q=38.4 size=    1792KiB time=00:00:04.83 bitrate=3037.3kbits/s speed=0.0162x elapsed=0:04:57.71    \nframe=  147 fps=0.5 q=38.4 size=    1792KiB time=00:00:04.83 bitrate=3037.3kbits/s speed=0.0162x elapsed=0:04:58.23    \n[mp4 @ 000002064da49740] Starting second pass: moving the moov atom to the beginning of the file\n[out#0/mp4 @ 000002064da3abc0] video:1879KiB audio:0KiB subtitle:0KiB other streams:0KiB global headers:2KiB muxing overhead: 0.273945%\nframe=  150 fps=0.5 q=39.3 Lsize=    1885KiB time=00:00:04.93 bitrate=3129.3kbits/s speed=0.0165x elapsed=0:04:58.37    \nx265 [info]: frame I:      1, Avg QP:34.27  kb/s: 5956.32 \nx265 [info]: frame P:     37, Avg QP:34.89  kb/s: 5263.89 \nx265 [info]: frame B:    112, Avg QP:38.58  kb/s: 2330.44 \nx265 [info]: Weighted P-Frames: Y:24.3% UV:18.9%\n\nencoded 150 frames in 297.51s (0.50 fps), 3078.20 kb/s, Avg QP:37.64\n",
  "seconds": 298.78272461891174,
  "probe_out": {}
}